<svg width="413" height="321" viewBox="0 0 413 321" fill="none" xmlns="http://www.w3.org/2000/svg">
<g clip-path="url(#clip0_48_71)">
<path d="M343.056 281.217C342.994 282.766 343.231 284.366 343.68 286.002C336.356 290.316 329.934 290.859 321.103 287.931C322.946 286.469 324.852 283.383 325.584 281.011L335.522 278.646L343.056 281.217Z" fill="white"/>
<path d="M268.131 98.9624C266.261 104.252 257.634 104.943 247.198 99.9272C240.574 96.7343 248.676 87.7391 248.676 87.7391C248.676 87.7391 238.822 83.8079 240.085 81.3896C242.028 77.565 253.227 82.8671 256.884 84.6296C254.169 81.6508 255.491 80.2453 257.373 79.9237C259.446 79.6021 260.947 83.7839 263.914 87.0959C266.869 90.4434 270.026 93.6844 268.131 98.9634V98.9624Z" fill="white"/>
<path d="M357.905 287.522L356.788 298.479C355.219 305.094 370.228 306.117 371.573 299.952L372.79 288.017L357.906 287.522H357.905Z" fill="white"/>
<path d="M373.471 296.59C373.205 301.958 355.478 300.944 355.148 296.164C355.148 296.164 349.065 257.459 344.865 224.837L343.175 281.301C343.338 284.258 324.685 285.288 324.522 282.331C323.976 280.69 312.251 184.587 314.608 174.344L340.712 176.002L341.13 179.14C343.086 176.476 350.762 178.062 360.764 179.84C367.869 181.111 373.655 182.471 373.655 182.471C373.655 182.471 378.202 278.847 373.47 296.59H373.471Z" fill="#EEECF0"/>
<path d="M371.815 296.674C371.815 296.674 371.805 296.674 371.8 296.674C371.578 296.667 371.404 296.481 371.412 296.259C372.765 257.908 371.963 222.117 369.028 189.881C369.008 189.66 369.171 189.464 369.393 189.443C369.598 189.421 369.809 189.585 369.829 189.807C372.768 222.078 373.571 257.902 372.218 296.287C372.21 296.504 372.032 296.674 371.816 296.674H371.815Z" fill="#2F304C"/>
<path d="M378.565 142.478C378.391 142.627 374.938 145.166 370.622 145.062C370.904 158.121 372.071 174.617 373.938 183.268C374.348 185.078 373.56 187.001 371.918 187.838C360.548 193.705 313.089 185.754 313.99 176.018C313.99 176.018 315.873 151.773 317.997 141.473C318.954 136.91 319.422 124.825 319.856 112.175C319.784 111.057 319.727 109.938 319.679 108.827C316.163 112.497 312.133 116.957 307.321 119.395C305.51 120.312 303.474 120.868 301.471 120.771C300.545 120.723 299.653 120.561 298.775 120.312L259.127 104.57C257.22 102.671 262.724 91.0434 264.349 88.508C264.599 88.1135 265.082 87.9522 265.525 88.1058L297.164 99.9349C298.259 100.313 299.465 99.9512 300.141 99.0095C304.302 93.2322 318.923 72.5355 332.103 69.5749L333.906 69.1967C344.568 66.9675 355.141 69.7304 365.208 73.8882C395.918 86.5717 388.682 133.852 378.565 142.479L378.565 142.478Z" fill="#0075FF"/>
<path d="M309.064 118.201C309.105 118.337 309.145 118.467 309.177 118.596C309.072 118.66 308.96 118.717 308.846 118.772C308.822 118.789 308.79 118.796 308.758 118.796C308.686 118.796 308.613 118.756 308.581 118.684C308.533 118.587 308.565 118.467 308.67 118.41C308.807 118.346 308.936 118.274 309.064 118.201Z" fill="#2F304C"/>
<path d="M318.784 110.428C318.922 110.476 319.05 110.524 319.187 110.581C319.001 110.798 318.808 111.007 318.615 111.225L318.213 111.072C318.406 110.863 318.599 110.646 318.784 110.428Z" fill="#2F304C"/>
<path d="M329.318 94.8011L328.667 95.9685C328.152 96.8853 327.636 97.7954 327.13 98.6882C325.183 102.108 323.251 105.327 321.046 108.248C320.925 108.2 320.804 108.143 320.668 108.087C323.074 104.916 325.15 101.368 327.282 97.5938C327.628 96.9899 327.967 96.3871 328.312 95.7755L328.972 94.6091C329.02 94.5045 329.148 94.4719 329.245 94.5285C329.342 94.5851 329.374 94.7051 329.318 94.8021V94.8011Z" fill="#2F304C"/>
<path d="M343.139 157.679L316.85 148.582L304.502 102.814L331.332 114.257L343.139 157.679Z" fill="#EEECF0"/>
<path d="M345.571 142.784C345.571 142.784 343.225 143.174 341.768 143.424C341.661 143.448 341.566 143.46 341.471 143.484C341.293 143.508 341.127 143.531 340.997 143.555C340.558 143.626 340.12 143.697 339.706 143.744C325.711 145.45 322.476 134.785 326.41 131.55C328.306 129.986 330.925 135.59 332.654 136.456C334.444 137.606 336.968 136.919 337.11 135.472C337.252 134.181 335.724 134.43 335.913 132.261C336.043 130.709 340.523 131.835 341.968 132.842C342.134 132.96 342.288 133.091 342.43 133.245C342.442 133.245 342.454 133.257 342.454 133.269C343.532 134.383 343.982 136.161 343.982 136.161L345.57 142.785L345.571 142.784Z" fill="white"/>
<path d="M369.375 108.081C368.505 117.612 367.891 123.006 367.383 127.82C367.286 128.667 366.634 129.32 365.811 129.417L342.733 132.609C341.984 132.561 341.255 144.1 342.005 144.149C342.005 144.149 371.589 148.146 378.394 142.453C378.394 142.453 370.279 142.307 371.7 134.93" fill="#0075FF"/>
<path d="M345.777 182.942C344.896 182.942 344.007 182.654 343.381 181.926C343.236 181.758 343.255 181.504 343.423 181.359C343.593 181.213 343.846 181.233 343.99 181.401C344.753 182.287 346.18 182.29 347.197 181.834C348.315 181.334 349.198 180.366 350.052 179.43C351.103 178.278 352.045 177.318 353.323 176.819C354.923 176.195 356.632 176.472 358.285 176.74C358.616 176.793 358.946 176.847 359.274 176.892C360.637 177.083 363.091 177.167 364.229 175.594C364.311 175.48 364.385 175.36 364.459 175.24C364.6 175.013 364.745 174.778 364.946 174.566C365.509 173.969 366.274 173.776 367.012 173.589C367.527 173.458 368.014 173.335 368.413 173.085C368.601 172.967 368.849 173.022 368.967 173.211C369.086 173.399 369.03 173.647 368.842 173.766C368.336 174.084 367.764 174.229 367.21 174.369C366.553 174.535 365.934 174.692 365.532 175.119C365.388 175.272 365.269 175.462 365.145 175.664C365.06 175.801 364.976 175.937 364.883 176.067C363.855 177.486 361.828 178.063 359.164 177.69C358.831 177.644 358.495 177.589 358.158 177.534C356.612 177.285 355.014 177.026 353.617 177.569C352.501 178.004 351.63 178.896 350.686 179.93C349.738 180.969 348.798 182 347.527 182.569C347.011 182.799 346.398 182.941 345.779 182.941L345.777 182.942Z" fill="white"/>
<path d="M328.698 175.198C328.448 175.198 328.198 175.185 327.951 175.167C327.139 175.11 326.282 175.001 325.516 174.594C324.799 174.213 324.262 173.624 323.743 173.055C323.579 172.875 323.414 172.695 323.245 172.523C322.695 171.963 321.858 171.317 320.992 171.426C320.243 171.519 319.628 172.138 319.013 172.82C318.864 172.984 318.611 172.998 318.445 172.849C318.279 172.7 318.266 172.445 318.416 172.28C318.96 171.676 319.784 170.764 320.893 170.627C321.849 170.508 322.834 170.955 323.82 171.959C323.996 172.138 324.167 172.325 324.337 172.513C324.832 173.055 325.301 173.568 325.894 173.883C326.528 174.22 327.285 174.314 328.009 174.364C328.787 174.418 329.596 174.423 330.25 174.083C330.647 173.877 330.98 173.548 331.334 173.202C331.456 173.082 331.578 172.962 331.703 172.847C332.421 172.182 333.095 171.866 333.771 171.898C333.994 171.907 334.166 172.094 334.158 172.316C334.149 172.538 333.997 172.712 333.74 172.702C333.288 172.686 332.802 172.925 332.248 173.437C332.129 173.547 332.014 173.661 331.899 173.775C331.519 174.148 331.126 174.535 330.621 174.797C330.019 175.109 329.359 175.197 328.7 175.197L328.698 175.198Z" fill="white"/>
<path d="M346.283 105.922C344.086 105.922 341.906 104.614 340.998 102.58C340.818 102.175 340.688 101.754 340.561 101.347C340.399 100.821 340.244 100.325 339.995 99.8766C339.46 98.9214 338.455 98.236 337.371 98.0862C336.285 97.9394 335.134 98.3263 334.36 99.1C334.203 99.2584 333.948 99.2575 333.791 99.1C333.634 98.9426 333.634 98.6882 333.791 98.5307C334.738 97.5813 336.151 97.1032 337.48 97.2875C338.809 97.4699 340.042 98.3109 340.696 99.4811C340.988 100.002 341.162 100.564 341.33 101.106C341.454 101.509 341.572 101.888 341.733 102.25C342.675 104.362 345.343 105.592 347.559 104.932C348.092 104.774 348.592 104.529 349.122 104.269C349.422 104.122 349.722 103.974 350.028 103.843C351.613 103.165 353.356 102.908 355.065 103.105C355.583 103.164 356.316 103.312 356.704 103.908C356.825 104.094 356.772 104.343 356.586 104.464C356.401 104.584 356.151 104.534 356.029 104.346C355.876 104.11 355.54 103.969 354.973 103.905C353.396 103.726 351.8 103.96 350.345 104.584C350.052 104.709 349.764 104.85 349.476 104.992C348.941 105.255 348.386 105.527 347.789 105.705C347.296 105.851 346.789 105.921 346.283 105.921V105.922Z" fill="white"/>
<path d="M348.937 123.833C348.904 123.833 348.873 123.833 348.84 123.833C347.54 123.808 346.347 123.308 345.193 122.826C344.543 122.555 343.872 122.274 343.203 122.09C342.393 121.867 341.558 121.774 340.716 121.818C340.102 121.848 339.294 121.999 338.936 122.546C338.813 122.732 338.561 122.782 338.379 122.662C338.193 122.54 338.141 122.291 338.263 122.106C338.699 121.439 339.511 121.072 340.676 121.014C341.602 120.97 342.523 121.07 343.416 121.315C344.135 121.513 344.83 121.804 345.503 122.084C346.637 122.559 347.708 123.007 348.855 123.028C349.965 123.039 351.197 122.643 352.505 121.822C354.83 120.361 356.668 118.151 357.678 115.599C357.759 115.392 357.997 115.291 358.2 115.373C358.406 115.455 358.508 115.689 358.427 115.895C357.354 118.605 355.404 120.953 352.933 122.504C351.528 123.387 350.184 123.834 348.938 123.834L348.937 123.833Z" fill="white"/>
<path d="M379.889 101.989C379.107 101.989 378.318 101.851 377.551 101.574C375.805 100.941 374.387 99.6605 373.557 97.967C371.838 94.4592 373.192 90.2553 376.578 88.5955C376.775 88.4966 377.018 88.5792 377.117 88.7798C377.214 88.9795 377.132 89.2205 376.933 89.3184C373.946 90.7834 372.756 94.5043 374.28 97.6137C375.017 99.119 376.277 100.257 377.825 100.818C379.369 101.379 381.014 101.295 382.457 100.589C382.654 100.49 382.897 100.572 382.996 100.773C383.094 100.973 383.011 101.214 382.812 101.312C381.889 101.764 380.895 101.992 379.89 101.992L379.889 101.989Z" fill="white"/>
<path d="M325.469 84.478C323.438 84.478 321.449 83.6063 320.125 81.9272C319.987 81.7525 320.017 81.5 320.192 81.3618C320.366 81.2245 320.619 81.2533 320.757 81.429C322.816 84.0383 326.701 84.43 329.417 82.3016C330.762 81.2466 331.614 79.7471 331.813 78.0796C332.002 76.4956 331.572 74.9452 330.6 73.7135C330.463 73.5388 330.493 73.2863 330.667 73.148C330.841 73.0108 331.094 73.0396 331.233 73.2152C332.338 74.6159 332.828 76.3765 332.612 78.1746C332.388 80.0562 331.43 81.7468 329.915 82.9343C328.591 83.972 327.018 84.478 325.471 84.478H325.469Z" fill="white"/>
<path d="M337.326 166.527C336.709 166.527 336.101 166.52 335.506 166.512C334.339 166.497 333.133 166.481 331.978 166.084C331.767 166.012 331.655 165.782 331.728 165.573C331.8 165.364 332.029 165.25 332.239 165.323C333.273 165.679 334.414 165.694 335.517 165.707C338.968 165.754 342.881 165.804 346.196 164.227C347.65 163.536 348.973 162.534 350.254 161.564C350.869 161.098 351.486 160.632 352.118 160.194C352.688 159.801 353.312 159.406 354.011 159.183C354.756 158.945 355.524 158.917 356.311 158.908C358.684 158.879 361.458 158.986 363.996 159.991C364.224 160.08 364.828 160.319 364.938 160.905C364.98 161.122 364.837 161.334 364.618 161.374C364.402 161.413 364.188 161.272 364.147 161.053C364.137 160.998 364.065 160.883 363.701 160.739C361.293 159.786 358.623 159.684 356.319 159.713C355.596 159.722 354.893 159.747 354.254 159.951C353.689 160.132 353.174 160.444 352.575 160.858C351.951 161.29 351.346 161.748 350.739 162.207C349.426 163.201 348.068 164.229 346.541 164.956C343.643 166.334 340.379 166.53 337.325 166.53L337.326 166.527Z" fill="white"/>
<path d="M329.265 235.891C328.929 235.891 328.594 235.844 328.266 235.751C327.328 235.482 326.566 234.846 326.118 233.963C325.157 232.065 325.895 229.678 327.8 228.53C327.987 228.415 328.237 228.475 328.352 228.666C328.467 228.856 328.406 229.104 328.215 229.218C326.697 230.135 326.078 232.1 326.837 233.598C327.182 234.281 327.769 234.77 328.489 234.976C329.274 235.202 330.124 235.073 330.885 234.615C331.073 234.501 331.321 234.56 331.437 234.751C331.552 234.941 331.491 235.189 331.301 235.303C330.659 235.691 329.961 235.889 329.266 235.889L329.265 235.891Z" fill="#2F304C"/>
<path d="M361.667 239.774C361.332 239.774 360.997 239.728 360.672 239.634C359.739 239.366 358.98 238.734 358.534 237.854C357.576 235.964 358.311 233.588 360.208 232.444C360.396 232.33 360.645 232.389 360.76 232.58C360.876 232.771 360.814 233.018 360.624 233.132C359.112 234.044 358.497 235.999 359.253 237.49C359.597 238.167 360.18 238.654 360.896 238.859C361.677 239.083 362.524 238.956 363.28 238.5C363.468 238.387 363.717 238.447 363.832 238.637C363.948 238.828 363.886 239.074 363.696 239.189C363.057 239.575 362.361 239.771 361.669 239.771L361.667 239.774Z" fill="#2F304C"/>
<path d="M324.299 112.978L314 109.016L312.977 104.37L323.194 108.725L324.299 112.978Z" fill="#EEECF0"/>
<path d="M294.264 197.766C294.195 197.766 294.126 197.748 294.062 197.712L254.691 174.921C254.498 174.81 254.433 174.564 254.544 174.371C254.655 174.177 254.904 174.114 255.093 174.224L294.465 197.015C294.658 197.126 294.723 197.372 294.612 197.565C294.537 197.694 294.401 197.766 294.263 197.766H294.264Z" fill="#2F304C"/>
<path d="M18.6326 282.08C18.5635 282.08 18.4944 282.063 18.431 282.027L0.578853 271.692C0.386853 271.581 0.321573 271.335 0.432933 271.142C0.544293 270.949 0.791013 270.885 0.983013 270.995L18.8352 281.33C19.0272 281.441 19.0925 281.687 18.9811 281.88C18.9062 282.008 18.7709 282.08 18.6326 282.08Z" fill="#2F304C"/>
<path d="M401.022 224.64C400.304 224.64 399.625 224.38 399.084 223.894C398.467 223.34 398.114 222.549 398.114 221.722C398.114 220.117 399.424 218.811 401.035 218.811C401.904 218.811 402.718 219.194 403.271 219.861C403.825 220.529 404.048 221.41 403.884 222.279C403.654 223.505 402.587 224.49 401.343 224.621C401.236 224.633 401.129 224.639 401.022 224.639V224.64ZM401.034 219.616C399.848 219.616 398.918 220.541 398.918 221.723C398.918 222.321 399.175 222.894 399.621 223.296C400.071 223.7 400.65 223.887 401.258 223.823C402.155 223.728 402.926 223.016 403.092 222.131C403.214 221.488 403.057 220.865 402.652 220.374C402.251 219.892 401.663 219.615 401.035 219.615L401.034 219.616Z" fill="#797885"/>
<path d="M61.9402 13.7361C61.8893 13.7361 61.8375 13.7265 61.7875 13.7053C61.6157 13.6353 61.5139 13.4557 61.5427 13.2714L62.3722 7.91174C62.3875 7.82822 62.352 7.74566 62.2839 7.69094L57.9024 4.53061C57.7517 4.42213 57.6951 4.22341 57.7661 4.05157C57.8371 3.87973 58.0109 3.77413 58.201 3.80773L63.5559 4.65253C63.624 4.65637 63.7066 4.62661 63.7488 4.56517L66.9418 0.166455C67.0503 0.0157345 67.248 -0.0399455 67.4208 0.0310945C67.5917 0.102135 67.6935 0.281655 67.6647 0.465975L66.8199 5.81989C66.8045 5.90341 66.8419 5.98213 66.9178 6.04069L71.2896 9.20006C71.4403 9.30854 71.497 9.50726 71.4259 9.6791C71.3549 9.85094 71.1706 9.94982 70.992 9.9239L65.6525 9.08582C65.5642 9.0743 65.4855 9.10502 65.4432 9.16646L62.2666 13.57C62.1898 13.6775 62.0669 13.737 61.9402 13.737V13.7361ZM59.7399 4.86565L62.7696 7.05062C63.0864 7.30214 63.2333 7.67846 63.1661 8.04614L62.5939 11.7402L64.7856 8.70278C64.9949 8.3975 65.3741 8.23526 65.7667 8.28806L69.456 8.86694L66.4368 6.68582C66.1123 6.43814 65.9578 6.05701 66.025 5.68453L66.6077 1.99429L64.4055 5.02789C64.2 5.32645 63.8247 5.48869 63.4474 5.44837L59.7399 4.86373V4.86565Z" fill="#797885"/>
<path d="M255.74 277.522C255.637 277.522 255.535 277.483 255.456 277.404C255.299 277.247 255.299 276.992 255.456 276.835L259.17 273.12C259.328 272.962 259.582 272.962 259.74 273.12C259.897 273.277 259.897 273.531 259.74 273.689L256.025 277.404C255.947 277.483 255.844 277.522 255.741 277.522H255.74Z" fill="#797885"/>
<path d="M259.454 277.522C259.352 277.522 259.249 277.483 259.17 277.404L255.456 273.69C255.299 273.532 255.299 273.278 255.456 273.121C255.613 272.963 255.868 272.963 256.025 273.121L259.74 276.835C259.897 276.992 259.897 277.247 259.74 277.404C259.661 277.483 259.558 277.522 259.455 277.522H259.454Z" fill="#797885"/>
<path d="M33.3898 49.1863C34.2778 48.6736 35.0861 48.6247 35.6688 48.9568C36.2583 49.2784 36.6173 50.0003 36.6202 51.0199L36.624 52.2919C36.6298 54.3395 35.1898 56.8269 33.4138 57.8522C31.6435 58.8736 30.1882 58.0586 30.1824 56.0109L30.1786 54.7389C30.1728 52.6979 31.6186 50.2077 33.3888 49.1853L33.3898 49.1863Z" fill="white"/>
<path d="M31.9709 58.6982C31.5937 58.6982 31.2413 58.608 30.9274 58.4275C30.1911 58.0042 29.7831 57.1469 29.7802 56.0131L29.7773 54.7411C29.7716 52.5754 31.3018 49.9277 33.1882 48.8381C34.176 48.2678 35.1274 48.1862 35.8676 48.6077C36.6068 49.0109 37.0186 49.8691 37.0224 51.0202L37.0263 52.2922C37.033 54.4982 35.5335 57.095 33.6144 58.2019C33.0432 58.5322 32.4836 58.6982 31.9709 58.6982ZM33.5904 49.535C31.9546 50.4797 30.577 52.8634 30.5818 54.7392L30.5847 56.0112C30.5866 56.8454 30.8516 57.456 31.3287 57.7306C31.8106 58.009 32.4807 57.9283 33.2122 57.505C34.8768 56.544 36.2276 54.2064 36.2218 52.2941L36.218 51.0221C36.216 50.1907 35.9453 49.5667 35.4759 49.3104C34.9853 49.031 34.3172 49.1136 33.5895 49.535H33.5904Z" fill="#2F304C"/>
<path d="M33.4186 61.1475C35.2013 60.1184 36.6442 60.9411 36.65 62.9888L36.7239 91.3069C36.7297 93.3478 35.2964 95.8381 33.5137 96.8672C31.7377 97.8925 30.2948 97.063 30.289 95.0221L30.2151 66.704C30.2093 64.6563 31.6426 62.1728 33.4186 61.1475Z" fill="white"/>
<path d="M32.0736 97.7109C31.6983 97.7109 31.3469 97.6216 31.034 97.4411C30.2967 97.0168 29.8896 96.1576 29.8868 95.0219L29.8119 66.7038C29.8052 64.4978 31.3018 61.9029 33.218 60.7979C34.2116 60.2238 35.1668 60.1422 35.9069 60.5675C36.6423 60.9909 37.0484 61.8491 37.0522 62.9867L37.1271 91.3048C37.1338 93.5118 35.6343 96.1077 33.7152 97.2146C33.145 97.5438 32.5863 97.7099 32.0746 97.7109H32.0736ZM34.8663 61.1051C34.4948 61.1051 34.0704 61.2366 33.6212 61.4958C31.9604 62.4549 30.6125 64.7906 30.6173 66.7029L30.6922 95.021C30.6941 95.8571 30.9581 96.4696 31.4362 96.7451C31.9143 97.0206 32.5824 96.941 33.313 96.5195C34.9776 95.5586 36.3284 93.221 36.3226 91.3086L36.2477 62.9906C36.2458 62.1525 35.9818 61.541 35.5056 61.2664C35.3184 61.1589 35.1034 61.1051 34.8663 61.1051Z" fill="#2F304C"/>
<path d="M154.547 19.4291C153.832 19.4291 153.156 19.1709 152.617 18.6861C152.004 18.1341 151.651 17.3459 151.651 16.5232C151.651 14.9238 152.957 13.623 154.561 13.623C155.425 13.623 156.236 14.0042 156.787 14.6685C157.339 15.3338 157.561 16.2122 157.397 17.0781C157.168 18.2992 156.104 19.2803 154.867 19.4118C154.76 19.4234 154.653 19.4291 154.547 19.4291ZM154.56 14.4285C153.38 14.4285 152.455 15.3491 152.455 16.5242C152.455 17.1194 152.709 17.6896 153.155 18.089C153.602 18.4912 154.182 18.6755 154.782 18.6131C155.674 18.5181 156.441 17.8115 156.606 16.9312C156.727 16.2918 156.571 15.6717 156.167 15.184C155.77 14.705 155.184 14.4294 154.56 14.4294V14.4285Z" fill="#797885"/>
<path d="M374.822 128.866C374.687 128.866 374.555 128.798 374.479 128.673C374.363 128.483 374.423 128.235 374.612 128.12C376.165 127.172 376.421 125.013 376.435 123.811C376.442 123.299 376.419 122.783 376.398 122.268C376.344 121.005 376.288 119.698 376.643 118.437C377.072 116.907 378.065 115.607 378.943 114.459C379.6 113.597 380.166 113.693 380.446 113.827C380.647 113.923 380.731 114.163 380.635 114.363C380.538 114.564 380.301 114.649 380.099 114.553C380.027 114.516 379.807 114.654 379.582 114.949C378.708 116.092 377.804 117.275 377.417 118.655C377.099 119.793 377.148 120.98 377.202 122.235C377.224 122.765 377.247 123.295 377.241 123.822C377.225 125.19 376.917 127.657 375.033 128.808C374.967 128.849 374.894 128.867 374.822 128.867V128.866Z" fill="white"/>
<path d="M278.962 151.819C278.715 153.136 277.574 154.182 276.246 154.323C274.365 154.524 272.789 153.042 272.789 151.219C272.789 149.491 274.176 148.103 275.916 148.103C277.834 148.103 279.338 149.831 278.962 151.819Z" fill="#EAF0F4"/>
<path d="M336.826 85.0181C336.826 85.0181 344.926 98.5541 360.888 91.8254Z" fill="#0075FF"/>
<path d="M352.345 94.09C341.935 94.09 336.547 85.3348 336.481 85.2244C336.367 85.0333 336.428 84.7866 336.619 84.6724C336.809 84.5572 337.057 84.6205 337.171 84.8106C337.495 85.3511 345.286 97.9645 360.731 91.4538C360.935 91.3693 361.171 91.4634 361.258 91.6679C361.345 91.8724 361.248 92.1085 361.044 92.1949C357.837 93.5466 354.936 94.089 352.346 94.089L352.345 94.09Z" fill="#2F304C"/>
<path d="M412.398 320.68H0.40224C0.17952 320.68 0 320.501 0 320.278C0 320.055 0.17952 319.876 0.40224 319.876H412.398C412.62 319.876 412.8 320.055 412.8 320.278C412.8 320.501 412.62 320.68 412.398 320.68Z" fill="#2F304C"/>
<path d="M115.065 275.066L115.059 278.591C115.059 280.558 116.346 282.526 118.925 284.035C124.116 287.073 132.567 287.098 137.808 284.092C140.447 282.578 141.769 280.586 141.769 278.593L141.775 275.068C141.775 277.061 140.453 279.054 137.814 280.567C132.574 283.572 124.122 283.547 118.931 280.51C116.352 279.002 115.065 277.034 115.065 275.066Z" fill="#51AAFE"/>
<path d="M128.417 286.523C124.937 286.523 121.459 285.752 118.822 284.209C116.265 282.713 114.857 280.718 114.857 278.592L114.863 275.066C114.863 274.955 114.953 274.865 115.065 274.865C115.176 274.865 115.266 274.955 115.266 275.067C115.266 277.044 116.603 278.915 119.032 280.337C124.158 283.335 132.538 283.361 137.714 280.394C140.197 278.969 141.567 277.084 141.574 275.082V275.069C141.574 274.958 141.664 274.868 141.776 274.868C141.887 274.868 141.977 274.958 141.977 275.07V275.084L141.971 278.596C141.971 280.752 140.529 282.767 137.909 284.269C135.284 285.775 131.851 286.526 128.419 286.526L128.417 286.523ZM115.262 276.997L115.26 278.592C115.26 280.57 116.598 282.441 119.027 283.861C124.152 286.859 132.532 286.885 137.708 283.918C140.196 282.491 141.568 280.599 141.568 278.593L141.57 277.015C140.971 278.42 139.723 279.703 137.913 280.741C132.627 283.773 124.064 283.747 118.828 280.684C117.064 279.652 115.847 278.383 115.261 276.997H115.262Z" fill="#545362"/>
<path d="M115.065 275.065L115.059 278.591C115.059 280.558 116.346 282.526 118.925 284.035C124.116 287.072 132.567 287.097 137.808 284.091C140.447 282.577 141.769 280.585 141.769 278.592L141.775 275.067C141.775 277.06 140.453 279.053 137.814 280.566C132.574 283.571 124.122 283.546 118.931 280.51C116.352 279.001 115.065 277.033 115.065 275.065Z" fill="#0075FF"/>
<path d="M115.055 278.466L115.049 281.992C115.049 283.959 116.337 285.927 118.915 287.436C124.107 290.474 132.558 290.498 137.798 287.493C140.437 285.979 141.759 283.987 141.759 281.994L141.765 278.469C141.765 280.462 140.443 282.455 137.804 283.968C132.564 286.972 124.113 286.947 118.921 283.911C116.342 282.403 115.055 280.435 115.055 278.467V278.466Z" fill="#EEECF0"/>
<path d="M119.021 269.572C113.781 272.576 113.743 277.473 118.931 280.509C124.122 283.546 132.573 283.571 137.814 280.565C143.056 277.559 143.101 272.662 137.911 269.624C132.723 266.589 124.264 266.564 119.022 269.571L119.021 269.572Z" fill="white"/>
<path d="M132.164 291.9L132.154 295.42C132.154 299.112 134.569 302.801 139.404 305.625L147.968 310.639V307.108L139.404 302.106C134.579 299.271 132.164 295.582 132.164 291.9Z" fill="#51AAFE"/>
<path d="M147.968 310.841C147.932 310.841 147.898 310.832 147.866 310.813L139.303 305.799C134.562 303.03 131.952 299.344 131.952 295.419L131.963 291.899C131.963 291.788 132.053 291.698 132.164 291.698C132.276 291.698 132.366 291.788 132.366 291.9C132.366 295.663 134.901 299.226 139.507 301.933L148.069 306.935C148.132 306.972 148.169 307.037 148.169 307.109V310.64C148.169 310.712 148.131 310.778 148.068 310.815C148.037 310.832 148.002 310.842 147.968 310.842V310.841ZM132.357 294.513L132.355 295.42C132.355 299.195 134.895 302.757 139.506 305.451L147.767 310.288V307.223L139.304 302.279C135.641 300.127 133.252 297.433 132.358 294.513H132.357Z" fill="#545362"/>
<path d="M132.164 291.9L132.154 295.42C132.154 299.112 134.569 302.801 139.405 305.625L147.968 310.639V307.108L139.405 302.106C134.58 299.271 132.164 295.582 132.164 291.9Z" fill="#0075FF"/>
<path d="M132.154 295.301L132.143 298.822C132.143 302.514 134.558 306.202 139.394 309.026L147.957 314.04V310.51L139.394 305.507C134.569 302.672 132.154 298.983 132.154 295.301Z" fill="#EEECF0"/>
<path d="M147.972 307.111L147.966 310.637L183.539 290.237L183.544 286.712L147.972 307.111Z" fill="#0075FF"/>
<path d="M147.962 310.512L147.956 314.037L183.529 293.637L183.534 290.112L147.962 310.512Z" fill="#EEECF0"/>
<path d="M139.582 281.597C129.757 287.231 129.682 296.411 139.406 302.1L147.972 307.111L183.544 286.711L174.979 281.7C165.254 276.01 149.404 275.964 139.582 281.596V281.597Z" fill="white"/>
<path d="M183.947 286.713C183.947 286.615 183.854 286.428 183.748 286.365L175.183 281.353C166.229 276.117 152.107 275.629 142.164 279.889L142.166 278.755C142.18 278.656 142.174 277.948 142.174 275.088V275.048C142.174 272.859 140.725 270.808 138.11 269.278C132.828 266.182 124.188 266.15 118.822 269.222C116.15 270.751 114.67 272.819 114.662 275.039V275.063C114.662 275.157 114.645 282.449 114.646 281.992C114.646 284.188 116.086 286.248 118.71 287.785C121.374 289.339 124.889 290.119 128.406 290.119C129.635 290.119 130.84 289.99 132.017 289.779C131.853 290.463 131.764 291.157 131.761 291.861C131.761 291.872 131.762 291.884 131.762 291.896C131.762 291.897 131.762 291.898 131.762 291.899V291.902L131.751 295.42C131.751 295.42 131.751 295.426 131.751 295.43L131.741 298.821C131.741 302.82 134.387 306.568 139.19 309.374L147.754 314.388C147.878 314.461 148.033 314.461 148.158 314.39C148.161 314.388 148.163 314.384 148.165 314.382L183.73 293.988C183.854 293.917 183.931 293.783 183.931 293.639C183.931 293.558 183.948 286.25 183.947 286.714V286.713ZM139.202 302.453C140.057 302.953 136.104 300.643 147.565 307.341C147.565 307.423 147.565 309.974 147.565 309.814L139.598 305.16C135.205 302.579 132.73 299.217 132.572 295.661C133.854 298.578 136.477 300.854 139.202 302.454V302.453ZM183.14 287.407L183.136 289.876L148.369 309.814C148.369 309.732 148.373 307.185 148.373 307.345C151.53 305.535 179.386 289.56 183.14 287.407ZM174.776 282.048L182.742 286.708C175.343 290.951 154.214 303.068 147.974 306.646C138.777 301.265 139.673 301.79 139.611 301.753C130.21 296.253 130.168 287.46 139.783 281.947C149.476 276.387 165.176 276.431 174.776 282.048ZM119.224 269.923C124.353 266.969 132.659 267.024 137.708 269.971C140.074 271.355 141.37 273.157 141.37 275.064V275.088C141.37 277.336 139.559 279.098 137.612 280.214C128.797 285.272 115.468 281.006 115.468 275.048C115.468 272.785 117.273 271.042 119.225 269.923H119.224ZM115.66 278.131C115.66 278.138 115.668 278.155 115.676 278.163C115.767 278.254 117.117 280.444 120.866 281.881C123.254 282.796 125.888 283.201 128.422 283.201C131.641 283.201 135.205 282.523 138.013 280.916C140.432 279.606 141.269 277.949 141.369 277.85C141.327 278.261 141.526 279.165 140.825 280.502C140.336 280.743 139.845 280.984 139.381 281.25C137.536 282.308 136.003 283.502 134.807 284.796C129.812 286.433 123.36 286.043 119.12 283.563C116.77 282.188 115.467 280.385 115.458 278.493V278.469L115.466 277.842C115.53 277.938 115.595 278.035 115.659 278.132L115.66 278.131ZM119.12 287.086C116.754 285.702 115.451 283.892 115.451 281.993V281.229C116.135 282.363 117.237 283.393 118.717 284.254C122.812 286.656 128.882 287.178 133.904 285.883C133.177 286.852 132.623 287.866 132.264 288.914C127.76 289.735 122.672 289.166 119.12 287.086ZM132.557 299.172C133.676 301.728 135.939 304.068 139.2 305.973L147.554 310.865C147.554 310.947 147.554 313.498 147.554 313.339L139.596 308.68C135.193 306.107 132.71 302.742 132.557 299.173V299.172ZM148.359 313.342L148.363 310.872L183.131 290.934L183.126 293.404L148.358 313.342H148.359Z" fill="#2F304C"/>
<path d="M304.766 45.847L308.771 43.4297L312.909 56.2572L308.904 58.6745L304.766 45.847Z" fill="#EEECF0"/>
<path d="M312.977 33.0206C312.965 37.9185 311.399 41.6135 308.769 43.4299L304.769 45.8481C307.4 44.0318 308.953 40.3367 308.965 35.4388C309.003 25.0161 301.775 12.1895 292.981 7.11593C288.597 4.58633 284.602 4.38569 281.682 6.08873L285.682 3.67049C288.612 1.96745 292.596 2.16713 296.981 4.69769C305.774 9.77033 313.002 22.5978 312.977 33.0196V33.0206Z" fill="#EEECF0"/>
<path d="M292.98 7.11934C301.77 12.1939 309 25.0205 308.97 35.4422C308.957 40.3401 307.4 44.0256 304.767 45.8477L308.905 58.6752L299.22 47.4499C297.225 47.3385 295.136 46.6579 292.873 45.3504C283.987 40.2201 276.758 27.384 276.788 16.8624C276.818 6.44062 284.096 1.99006 292.981 7.1203L292.98 7.11934Z" fill="white"/>
<path d="M313.38 33.0213C313.405 22.3787 306.139 9.51663 297.182 4.34895C292.824 1.83279 288.669 1.46895 285.473 3.32559C284.852 3.70095 281.289 5.85615 281.474 5.74383C278.207 7.64463 276.399 11.5893 276.385 16.8597C276.354 27.5598 283.661 40.4958 292.671 45.6981C294.916 46.9941 296.996 47.6949 299.025 47.8398C299.096 47.9214 308.683 59.0258 308.609 58.9442C308.717 59.0632 308.915 59.1304 309.103 59.0258C309.183 58.9806 313.199 56.5624 313.118 56.6027C313.278 56.5058 313.35 56.3128 313.293 56.1352L309.239 43.565C311.893 41.572 313.369 37.8549 313.381 33.0222L313.38 33.0213ZM299.524 47.1861C299.453 47.1035 299.35 47.0536 299.242 47.0478C297.286 46.9384 295.269 46.2693 293.074 45.0011C284.286 39.9275 277.16 27.3045 277.189 16.8626C277.218 6.70383 284.188 2.50767 292.779 7.46799C300.05 11.6661 306.346 21.4926 308.088 30.6011C309.056 35.6805 308.762 42.5925 304.537 45.5166C304.533 45.5195 304.532 45.5253 304.528 45.5282C304.38 45.6386 304.337 45.8296 304.383 45.9707L307.911 56.909L299.523 47.1861H299.524ZM309.132 58.0677C308.775 56.9646 305.717 47.4827 305.247 46.0283C305.328 45.9794 308.763 43.9048 308.544 44.0363L312.427 56.0766L309.131 58.0667L309.132 58.0677ZM308.56 43.085L307.206 43.9038C309.684 40.1954 309.696 34.8491 308.88 30.4619C307.14 21.0626 300.782 11.1506 293.183 6.76719C290.709 5.34063 287.717 4.30959 284.869 4.63215L285.884 4.01871C288.814 2.31663 292.684 2.68143 296.78 5.04687C305.366 10.0005 312.599 22.8107 312.575 33.0194C312.564 37.6629 311.092 41.3368 308.56 43.0859V43.085Z" fill="#2F304C"/>
<path d="M301.88 34.8603C300.517 34.0741 299.454 32.2328 299.459 30.669C299.463 28.9678 300.777 28.1749 302.297 29.0523C303.658 29.8386 304.72 31.6779 304.716 33.2408C304.709 34.9515 303.395 35.733 301.881 34.8594L301.88 34.8603ZM300.263 30.6718C300.26 31.9304 301.184 33.5298 302.282 34.1634C303.222 34.7077 303.907 34.3611 303.91 33.2389C303.913 31.9803 302.99 30.3829 301.894 29.7493C300.95 29.204 300.266 29.5486 300.263 30.6709V30.6718Z" fill="#2F304C"/>
<path d="M292.125 29.2295C290.763 28.4432 289.698 26.6019 289.703 25.0381C289.708 23.3226 291.032 22.5507 292.542 23.4215C293.902 24.2077 294.965 26.0471 294.96 27.6099C294.955 29.3149 293.641 30.1021 292.125 29.2285V29.2295ZM290.508 25.04C290.505 26.2986 291.428 27.8979 292.527 28.5315C293.477 29.0807 294.152 28.7197 294.155 27.6071C294.157 26.3485 293.235 24.7511 292.139 24.1175C291.21 23.5808 290.51 23.9024 290.508 25.0391V25.04Z" fill="#2F304C"/>
<path d="M282.37 23.597C281.007 22.8107 279.943 20.9694 279.949 19.4056C279.953 17.6814 281.284 16.9221 282.786 17.789C284.147 18.5733 285.209 20.4136 285.205 21.9774C285.2 23.6824 283.885 24.4696 282.37 23.596V23.597ZM280.753 19.4085C280.749 20.667 281.674 22.2664 282.772 22.9C283.721 23.4491 284.396 23.0882 284.399 21.9755C284.402 20.716 283.479 19.1186 282.383 18.4859C281.454 17.9493 280.756 18.2699 280.752 19.4075L280.753 19.4085Z" fill="#2F304C"/>
<path d="M34.4784 290.687L24.5318 284.899C23.0688 284.052 22.1577 282.23 22.1443 279.663L21.7469 140.193L31.7059 145.981L32.1043 285.438C32.1043 288.018 33.0153 289.827 34.4784 290.687Z" fill="white"/>
<path d="M236.821 27.5493L237.217 167.016C237.231 172.204 233.58 178.519 229.074 181.121L40.295 290.113C35.7878 292.715 32.1139 290.631 32.0985 285.442L31.703 145.975L236.821 27.5493Z" fill="white"/>
<path d="M234.411 11.9009C232.922 11.0408 230.856 11.156 228.584 12.4779L39.8304 121.441C35.3126 124.059 31.655 130.387 31.6675 135.584L31.7059 145.954L21.7468 140.179L21.7209 129.797C21.7084 124.598 25.3526 118.272 29.8838 115.665L218.625 6.69004C220.909 5.3806 222.963 5.25292 224.452 6.12556L234.411 11.9009Z" fill="#EEECF0"/>
<path d="M228.579 12.4741C233.102 9.86292 236.777 11.9567 236.792 17.1445L236.821 27.5298L31.703 145.955L31.6733 135.579C31.6589 130.381 35.3097 124.058 39.8323 121.447L228.579 12.4741Z" fill="#EEECF0"/>
<path d="M80.5142 178.25L84.0614 184.421L91.9603 181.177L86.2627 190.881L87.6317 199.138L80.5728 198.94L73.5264 207.282L74.8435 197.474L69.1219 194.362L77.0026 188.497L80.5142 178.25Z" fill="#EEECF0"/>
<path d="M116.456 157.499L120.003 163.67L127.902 160.426L122.217 170.123L123.586 178.38L116.514 178.189L109.468 186.531L110.797 176.716L105.064 173.611L112.955 167.739L116.456 157.499Z" fill="#EEECF0"/>
<path d="M152.398 136.748L155.957 142.912L163.856 139.667L158.159 149.372L159.528 157.629L152.457 157.438L145.422 165.773L146.74 155.965L141.018 152.853L148.898 146.988L152.398 136.748Z" fill="#EEECF0"/>
<path d="M188.352 115.99L191.898 122.162L199.798 118.917L194.112 128.614L195.481 136.871L188.411 136.68L181.364 145.022L182.694 135.207L176.96 132.102L184.852 126.23L188.352 115.99Z" fill="#EEECF0"/>
<path d="M134.34 96.9796C138.305 94.69 141.528 96.514 141.541 101.07C141.554 105.627 138.352 111.161 134.387 113.45C130.432 115.733 127.21 113.909 127.196 109.352C127.184 104.796 130.385 99.2624 134.34 96.9796Z" fill="#0075FF"/>
<path d="M134.398 116.816C144.163 111.178 152.219 114.995 153.295 125.276C153.43 126.508 152.521 128.16 151.382 128.818L117.549 148.351C116.411 149.008 115.495 148.41 115.623 147.025C116.638 135.536 124.671 122.43 134.397 116.816H134.398Z" fill="#0075FF"/>
<path d="M204.794 146.377C210.228 143.238 214.663 145.753 214.68 152.011L214.736 163.201C214.753 169.459 210.348 177.076 204.914 180.214L61.4476 263.044C56.0121 266.183 51.5894 263.663 51.5721 257.404L51.5164 246.215C51.4992 239.956 55.8921 232.347 61.3276 229.208L204.794 146.378V146.377Z" fill="#2B2A46"/>
<path d="M57.0326 264.598C56.0592 264.598 55.1587 264.37 54.3629 263.912C52.4419 262.807 51.3782 260.495 51.3696 257.403L51.3149 246.215C51.2966 239.906 55.7434 232.199 61.2269 229.033L204.694 146.203C207.4 144.641 209.956 144.394 211.889 145.508C213.81 146.613 214.874 148.922 214.883 152.011L214.937 163.199C214.956 169.508 210.505 177.218 205.015 180.387L61.5475 263.218C59.9597 264.136 58.4227 264.599 57.0326 264.599V264.598ZM209.213 145.223C207.893 145.223 206.422 145.669 204.895 146.551L61.4275 229.382C56.0554 232.484 51.6989 240.034 51.7171 246.214L51.7718 257.402C51.7805 260.346 52.7712 262.534 54.5635 263.565C56.3664 264.602 58.7741 264.355 61.3459 262.87L204.813 180.039C210.191 176.933 214.552 169.38 214.534 163.2L214.479 152.012C214.471 149.073 213.48 146.886 211.688 145.855C210.953 145.433 210.118 145.223 209.213 145.223V145.223Z" fill="#2B2A46"/>
<path d="M206.128 144.013C211.563 140.875 215.997 143.389 216.014 149.647L216.07 160.837C216.087 167.095 211.683 174.712 206.248 177.85L62.7821 260.681C57.3466 263.819 52.9239 261.299 52.9066 255.041L52.8509 243.851C52.8336 237.593 57.2275 229.983 62.6621 226.845L206.128 144.014V144.013Z" fill="#EF81B6"/>
<path d="M68.1485 236.812C68.0102 236.812 67.8739 236.74 67.8 236.611C67.6886 236.418 67.7549 236.172 67.9469 236.061L200.174 159.719C200.366 159.609 200.613 159.673 200.724 159.866C200.835 160.059 200.769 160.305 200.577 160.416L68.3491 236.757C68.2858 236.794 68.2166 236.811 68.1475 236.811L68.1485 236.812Z" fill="white"/>
<path d="M68.1484 247.674C68.0102 247.674 67.8739 247.603 67.8 247.473C67.6886 247.28 67.7548 247.034 67.9468 246.923L200.174 170.582C200.366 170.471 200.613 170.536 200.723 170.729C200.835 170.922 200.769 171.167 200.577 171.279L68.3491 247.62C68.2857 247.656 68.2166 247.674 68.1475 247.674L68.1484 247.674Z" fill="white"/>
<path d="M46.4122 123.711C48.2785 122.634 49.7953 123.492 49.801 125.636C49.8068 127.781 48.2996 130.385 46.4343 131.462C44.5738 132.537 43.057 131.678 43.0503 129.534C43.0445 127.389 44.5517 124.786 46.4122 123.711Z" fill="white"/>
<path d="M61.2068 115.169C63.073 114.092 64.5898 114.95 64.5956 117.094C64.6013 119.239 63.0941 121.843 61.2289 122.92C59.3684 123.995 57.8516 123.136 57.8449 120.992C57.8391 118.847 59.3463 116.244 61.2068 115.169Z" fill="white"/>
<path d="M76.0023 106.627C77.8686 105.55 79.3854 106.408 79.3911 108.552C79.3969 110.697 77.8897 113.301 76.0244 114.378C74.1639 115.453 72.6471 114.594 72.6404 112.45C72.6346 110.305 74.1418 107.702 76.0023 106.627Z" fill="white"/>
<path d="M227.039 19.8696C228.893 18.7992 230.403 19.6517 230.41 21.7819C230.412 22.8427 230.037 24.0254 229.434 25.0795C228.83 26.125 227.985 27.0485 227.061 27.5813L171.755 59.5128C169.908 60.5784 168.398 59.7173 168.392 57.588C168.389 56.5272 168.764 55.3435 169.367 54.299C169.97 53.2546 170.809 52.3349 171.732 51.8021L227.038 19.8706L227.039 19.8696Z" fill="white"/>
<path d="M237.195 17.1431C237.187 14.5203 236.279 12.5485 234.64 11.577C234.474 11.4579 235.62 12.1434 224.655 5.77762C222.983 4.7965 220.77 4.99618 218.424 6.34018L29.6832 115.316C25.0579 117.976 21.3053 124.471 21.3178 129.796C21.7786 292.996 21.7392 278.777 21.7411 279.663C21.7546 282.305 22.6743 284.287 24.3283 285.245L34.2739 291.032C34.2826 291.038 34.2922 291.036 34.3018 291.041C36.2323 292.146 38.5517 291.581 40.4938 290.46L229.273 181.468C233.889 178.802 237.632 172.318 237.616 167.013C237.59 157.803 237.207 22.4163 237.192 17.1421L237.195 17.1431ZM236.39 17.145L236.418 27.297L32.1063 145.257C32.065 131.992 32.0794 136.567 32.0755 135.577C32.0611 130.519 35.6323 124.336 40.0339 121.795C40.6531 121.437 228.69 12.8807 228.787 12.825C230.451 11.8563 232.517 11.2775 234.192 12.2423C235.602 13.0544 236.383 14.7949 236.39 17.145ZM30.0855 116.013L218.825 7.0381C220.909 5.84386 222.835 5.64322 224.25 6.47266L231.97 10.9491C230.975 11.001 229.664 11.3821 228.378 12.1251C228.241 12.2039 40.5898 120.538 39.6298 121.092C35.0055 123.772 31.2538 130.273 31.2663 135.585C31.2701 136.574 31.2538 132.004 31.2999 145.252L22.1491 139.946L22.1242 129.795C22.1117 124.728 25.6829 118.545 30.0864 116.013H30.0855ZM24.7335 284.55C23.3357 283.74 22.5591 282.003 22.5466 279.66L22.1511 140.891L31.3008 146.208L31.6954 285.441C31.7002 286.97 32.0275 288.2 32.4557 289.042L24.7335 284.548V284.55ZM228.873 180.772L40.0935 289.763C35.8109 292.237 32.5066 290.263 32.5066 285.435L32.1091 146.203L236.421 28.2445L236.814 167.017C236.828 172.065 233.266 178.236 228.873 180.772Z" fill="#2F304C"/>
<path d="M68.9299 194.715L74.4086 197.694L73.129 207.228C73.105 207.405 73.2 207.576 73.3642 207.649C73.417 207.672 73.4726 207.684 73.5274 207.684C73.6426 207.684 73.7568 207.634 73.8346 207.541L80.7562 199.347L87.6221 199.54C87.721 199.535 87.8582 199.492 87.936 199.402C88.0147 199.312 88.0493 199.19 88.0291 199.072L86.6832 190.959L92.3069 181.38C92.3942 181.231 92.377 181.043 92.2637 180.912C92.1494 180.783 91.967 180.739 91.8067 180.804L84.2342 183.915L80.8627 178.049C80.784 177.912 80.6342 177.837 80.4749 177.849C80.3174 177.864 80.184 177.97 80.1331 178.119L76.6618 188.248L68.881 194.038C68.7706 194.12 68.7101 194.253 68.7197 194.39C68.7302 194.526 68.808 194.649 68.929 194.714L68.9299 194.715ZM77.2426 188.819C77.3078 188.771 77.3568 188.704 77.3827 188.627L80.6074 179.219L83.713 184.622C83.8138 184.797 84.0269 184.87 84.215 184.794L91.008 182.002L85.9152 190.677C85.8682 190.757 85.8499 190.853 85.8653 190.946L87.1546 198.721L80.5834 198.537C80.4835 198.527 80.3434 198.587 80.2646 198.68L74.1082 205.968L75.241 197.526C75.264 197.361 75.1814 197.199 75.0355 197.119L69.8669 194.308L77.2426 188.819Z" fill="#2F304C"/>
<path d="M104.872 173.964L110.362 176.937L109.07 186.477C109.046 186.654 109.141 186.825 109.306 186.898C109.358 186.921 109.414 186.933 109.469 186.933C109.584 186.933 109.698 186.883 109.776 186.79L116.698 178.596L123.575 178.781C123.693 178.783 123.811 178.734 123.889 178.643C123.968 178.552 124.002 178.431 123.982 178.313L122.637 170.2L128.249 160.628C128.337 160.479 128.319 160.291 128.206 160.16C128.092 160.03 127.909 159.985 127.749 160.052L120.177 163.163L116.805 157.296C116.726 157.16 116.577 157.083 116.417 157.097C116.26 157.112 116.126 157.218 116.076 157.367L112.616 167.49L104.823 173.287C104.713 173.37 104.653 173.502 104.662 173.638C104.673 173.776 104.751 173.899 104.872 173.963V173.964ZM113.197 168.062C113.262 168.013 113.311 167.946 113.337 167.869L116.55 158.469L119.654 163.87C119.755 164.046 119.969 164.118 120.157 164.042L126.952 161.251L121.87 169.919C121.823 170.001 121.805 170.096 121.82 170.188L123.109 177.964L116.526 177.787C116.402 177.787 116.286 177.836 116.207 177.93L110.052 185.216L111.195 176.77C111.218 176.605 111.135 176.442 110.989 176.363L105.809 173.559L113.196 168.063L113.197 168.062Z" fill="#2F304C"/>
<path d="M152.36 136.347C152.203 136.363 152.069 136.468 152.019 136.618L148.558 146.74L140.777 152.531C140.667 152.613 140.606 152.745 140.616 152.882C140.627 153.019 140.704 153.142 140.825 153.207L146.305 156.186L145.024 165.72C145 165.897 145.095 166.068 145.26 166.141C145.312 166.164 145.368 166.176 145.423 166.176C145.538 166.176 145.652 166.126 145.73 166.033L152.64 157.846L159.517 158.032C159.642 158.032 159.753 157.985 159.831 157.894C159.91 157.802 159.945 157.681 159.924 157.563L158.58 149.449L164.203 139.871C164.291 139.722 164.273 139.534 164.16 139.403C164.046 139.273 163.865 139.228 163.703 139.295L156.131 142.406L152.748 136.546C152.669 136.41 152.529 136.332 152.36 136.346V136.347ZM156.11 143.284L162.904 140.494L157.812 149.168C157.764 149.249 157.746 149.345 157.762 149.437L159.05 157.213L152.467 157.035C152.345 157.033 152.227 157.084 152.148 157.178L146.004 164.459L147.137 156.018C147.16 155.853 147.078 155.69 146.932 155.611L141.762 152.8L149.138 147.311C149.203 147.263 149.252 147.195 149.278 147.118L152.493 137.715L155.609 143.113C155.709 143.288 155.922 143.36 156.11 143.284Z" fill="#2F304C"/>
<path d="M176.769 132.455L182.258 135.428L180.966 144.968C180.942 145.146 181.037 145.316 181.201 145.389C181.254 145.412 181.309 145.424 181.364 145.424C181.479 145.424 181.594 145.374 181.671 145.281L188.593 137.087L195.47 137.273C195.59 137.268 195.707 137.225 195.784 137.134C195.863 137.043 195.898 136.922 195.877 136.804L194.532 128.69L200.145 119.119C200.232 118.97 200.215 118.782 200.101 118.651C199.987 118.521 199.805 118.477 199.644 118.543L192.072 121.654L188.701 115.788C188.623 115.651 188.47 115.574 188.314 115.588C188.156 115.603 188.023 115.709 187.972 115.859L184.511 125.981L176.72 131.779C176.609 131.861 176.549 131.994 176.558 132.13C176.569 132.267 176.647 132.39 176.769 132.454V132.455ZM185.092 126.552C185.157 126.503 185.206 126.436 185.232 126.359L188.446 116.959L191.55 122.361C191.651 122.537 191.864 122.609 192.052 122.533L198.848 119.741L193.765 128.41C193.718 128.491 193.7 128.587 193.715 128.679L195.004 136.455L188.421 136.277C188.289 136.277 188.181 136.326 188.102 136.42L181.947 143.707L183.091 135.26C183.114 135.095 183.032 134.932 182.885 134.853L177.706 132.049L185.092 126.553V126.552Z" fill="#2F304C"/>
<path d="M134.587 113.799C138.657 111.45 141.956 105.74 141.944 101.069C141.929 96.2067 138.386 94.1802 134.139 96.631C130.076 98.9763 126.781 104.684 126.794 109.354C126.806 114.176 130.314 116.266 134.587 113.799ZM134.541 97.328C138.236 95.1949 141.126 96.8192 141.139 101.071C141.151 105.484 138.032 110.881 134.186 113.101C130.498 115.231 127.611 113.597 127.599 109.35C127.587 104.938 130.702 99.5446 134.542 97.327L134.541 97.328Z" fill="#2F304C"/>
<path d="M117.751 148.7L151.583 129.167C152.88 128.418 153.846 126.617 153.694 125.236C152.597 114.756 144.3 110.635 134.196 116.468C124.417 122.114 116.261 135.236 115.224 146.99C115.065 148.712 116.34 149.516 117.752 148.701L117.751 148.7ZM116.026 147.062C117.041 135.544 125.027 122.691 134.6 117.165C143.99 111.742 151.833 115.179 152.895 125.321C153.012 126.384 152.196 127.885 151.183 128.47L117.35 148.003C116.477 148.508 115.932 148.095 116.028 147.062H116.026Z" fill="#2F304C"/>
<path d="M213.324 142.968C211.324 141.817 208.697 142.065 205.928 143.663L62.4605 226.494C56.9213 229.693 52.4304 237.478 52.4487 243.851L52.5034 255.04C52.5226 261.555 57.2275 264.35 62.9827 261.027L206.449 178.196C211.994 174.995 216.491 167.206 216.473 160.833L216.418 149.644C216.408 146.481 215.31 144.111 213.324 142.967V142.968ZM206.047 177.5L62.5805 260.331C57.4119 263.316 53.3261 260.992 53.3079 255.038L53.2531 243.849C53.2359 237.734 57.5463 230.262 62.8627 227.192L206.33 144.361C207.827 143.497 209.262 143.06 210.546 143.06C211.417 143.06 212.219 143.261 212.922 143.666C214.649 144.66 215.604 146.784 215.613 149.649L215.669 160.838C215.686 166.953 211.37 174.427 206.048 177.5H206.047Z" fill="#2F304C"/>
<path d="M46.2106 123.362C44.2061 124.519 42.6403 127.231 42.648 129.534C42.6547 131.982 44.495 133.045 46.6349 131.81C48.6422 130.651 50.2099 127.938 50.2032 125.635C50.1965 123.183 48.3514 122.127 46.2106 123.362ZM46.2326 131.114C44.6448 132.03 43.4573 131.372 43.4525 129.532C43.4467 127.524 44.8646 125.069 46.6128 124.059C48.2054 123.139 49.3939 123.798 49.3987 125.637C49.4045 127.645 47.9846 130.102 46.2326 131.114Z" fill="#2F304C"/>
<path d="M61.0061 114.82C59.0016 115.977 57.4358 118.688 57.4426 120.992C57.4493 123.425 59.2781 124.509 61.4304 123.268C63.4378 122.108 65.0054 119.396 64.9987 117.092C64.992 114.638 63.144 113.586 61.0061 114.82ZM61.0282 122.572C59.4374 123.491 58.2518 122.826 58.247 120.991C58.2413 118.983 59.6602 116.528 61.4083 115.518C62.9942 114.602 64.1894 115.248 64.1942 117.095C64.2 119.104 62.7792 121.56 61.0282 122.572Z" fill="#2F304C"/>
<path d="M75.8007 106.279C73.7962 107.436 72.2304 110.148 72.2381 112.451C72.2448 114.883 74.0727 115.969 76.225 114.727C78.2323 113.567 79.8 110.855 79.7933 108.551C79.7866 106.099 77.9415 105.044 75.8007 106.279ZM75.8227 114.03C74.232 114.949 73.0474 114.285 73.0426 112.449C73.0368 110.441 74.4547 107.986 76.2029 106.976C77.7955 106.055 78.984 106.715 78.9888 108.553C78.9946 110.562 77.5747 113.018 75.8227 114.03Z" fill="#2F304C"/>
<path d="M226.838 19.5209L171.531 51.4524C169.567 52.5881 167.983 55.3125 167.989 57.5887C167.996 60.0098 169.821 61.0927 171.955 59.861L227.262 27.9295C229.258 26.7775 230.817 24.0415 230.812 21.7807C230.805 19.3442 228.968 18.2911 226.838 19.5209ZM226.86 27.2326L171.553 59.1641C169.983 60.0722 168.799 59.4137 168.794 57.5868C168.787 55.6005 170.224 53.1362 171.933 52.1493L227.241 20.2178C228.833 19.2982 230.003 19.9692 230.007 21.7826C230.012 23.7698 228.589 26.2342 226.86 27.2326Z" fill="#2F304C"/>
<path d="M343.442 71.3726C343.162 74.0241 343.99 77.1546 345.327 79.3242C345.327 79.3242 358.229 83.4321 363.972 73.689L362.323 67.282L361.053 62.4292C361.053 62.4292 359.916 63.4718 358.04 64.7985C354.78 67.187 349.378 70.5796 344.052 71.2804C344.014 71.2804 343.537 71.3706 343.442 71.3706V71.3726Z" fill="white"/>
<path d="M361.046 62.4273C361.046 62.4273 359.918 63.4699 358.039 64.8043C354.801 67.1937 349.368 70.5767 344.057 71.2804C344.008 71.2804 343.924 71.3294 343.827 71.3294C342.262 71.5108 340.674 71.5358 339.207 71.05C332.174 68.7095 334.38 42.6983 337.182 39.2798C341.462 42.6878 348.011 46.0583 355.711 44.458H355.735C355.929 44.5915 356.086 44.7249 356.22 44.9188C356.838 45.538 357.238 46.3137 357.468 47.1863C358.476 51.1636 355.783 56.6567 355.783 56.6567H357.856C357.856 56.6567 361.47 48.7991 364.38 51.8548C367.352 54.874 361.045 62.4283 361.045 62.4283L361.046 62.4273Z" fill="white"/>
<path d="M364.374 57.1548C363.172 59.8821 361.055 62.4309 361.055 62.4309L362.946 69.4927C362.946 69.4927 366.172 63.8613 368.802 57.1548H364.373H364.374Z" fill="white"/>
<path d="M362.946 69.6942C362.938 69.6942 362.929 69.6942 362.92 69.6923C362.84 69.6818 362.773 69.6232 362.752 69.5445L360.862 62.4827C360.845 62.4203 360.86 62.3531 360.901 62.3022C360.923 62.2773 363.013 59.7429 364.191 57.0731C364.224 57.0002 364.296 56.9531 364.376 56.9531H368.804C368.871 56.9531 368.933 56.9858 368.971 57.0414C369.008 57.0962 369.016 57.1662 368.991 57.2277C366.386 63.8718 363.155 69.5358 363.122 69.5925C363.085 69.6549 363.019 69.6933 362.947 69.6933L362.946 69.6942ZM361.276 62.4789L363.012 68.9627C363.796 67.5458 366.346 62.8072 368.507 57.3563H364.503C363.418 59.7621 361.639 62.0267 361.275 62.4789H361.276Z" fill="#2F304C"/>
<path d="M360.66 55.5079C360.66 55.5079 362.015 53.3556 362.961 53.9594C363.906 54.5623 363.288 55.8093 363.288 55.8093" fill="white"/>
<path d="M363.287 56.1108C363.242 56.1108 363.197 56.1012 363.155 56.0801C363.005 56.0062 362.944 55.8257 363.016 55.6769C363.036 55.6356 363.501 54.6631 362.797 54.2139C362.706 54.1553 362.605 54.1419 362.483 54.1678C361.891 54.3003 361.133 55.3217 360.914 55.6683C360.825 55.8094 360.639 55.8516 360.497 55.7633C360.356 55.675 360.314 55.4888 360.403 55.3476C360.503 55.1892 361.407 53.7905 362.351 53.5793C362.63 53.5169 362.895 53.5611 363.122 53.706C364.05 54.2984 363.812 55.4292 363.557 55.9448C363.504 56.0513 363.397 56.1118 363.286 56.1118L363.287 56.1108Z" fill="#2F304C"/>
<path d="M369.532 37.6431C369.396 37.6431 369.268 37.574 369.193 37.4578C369.11 37.3282 369.108 37.1631 369.187 37.0325L371.719 32.8479C371.834 32.6578 372.083 32.5983 372.271 32.7116C372.461 32.8268 372.521 33.0735 372.407 33.2636L370.3 36.7465L375.628 36.1359C375.829 36.11 376.048 36.2684 376.073 36.4892C376.098 36.71 375.94 36.9097 375.719 36.9346L369.577 37.6393C369.562 37.6412 369.546 37.6421 369.532 37.6421V37.6431Z" fill="#2F304C"/>
<path d="M345.475 48.6943C346.743 48.7135 347.807 49.3788 348.636 50.7718Z" fill="white"/>
<path d="M348.636 51.0732C348.534 51.0732 348.434 51.0204 348.377 50.9263C347.615 49.6456 346.665 49.014 345.47 48.9957C345.303 48.9928 345.171 48.8556 345.174 48.6895C345.177 48.5234 345.3 48.3804 345.48 48.3928C346.881 48.4149 348.03 49.1637 348.896 50.6181C348.98 50.7612 348.934 50.9465 348.79 51.0319C348.742 51.0607 348.688 51.0741 348.636 51.0741V51.0732Z" fill="#2F304C"/>
<path d="M340.14 47.3223C339.282 46.8442 337.899 46.7194 337.125 47.6352Z" fill="white"/>
<path d="M337.126 47.9378C337.057 47.9378 336.988 47.9148 336.931 47.8668C336.804 47.7593 336.788 47.5692 336.896 47.4415C337.742 46.4373 339.275 46.4959 340.288 47.0594C340.433 47.1401 340.486 47.3244 340.404 47.4703C340.324 47.6172 340.139 47.6671 339.995 47.5874C339.192 47.1401 337.995 47.0748 337.356 47.8313C337.298 47.9023 337.212 47.9388 337.126 47.9388V47.9378Z" fill="#2F304C"/>
<path d="M339.102 50.6663C338.93 51.3978 338.31 51.8893 337.711 51.7482C337.092 51.6032 336.755 50.8871 336.925 50.1555C337.097 49.424 337.717 48.9325 338.337 49.0784C338.936 49.2186 339.274 49.9347 339.102 50.6663Z" fill="#2F304C"/>
<path d="M346.505 53.0219C346.838 52.357 346.62 51.5744 346.018 51.2738C345.417 50.9731 344.66 51.2684 344.328 51.9333C343.995 52.5982 344.213 53.3809 344.815 53.6815C345.416 53.9821 346.173 53.6868 346.505 53.0219Z" fill="#2F304C"/>
<path d="M342.305 49.6011C342.305 49.6011 339.196 54.8081 339.149 56.9672C339.068 60.6382 342.714 58.5108 342.714 58.5108" fill="white"/>
<path d="M340.699 59.4236C340.363 59.4236 340.034 59.3584 339.743 59.1875C339.123 58.8227 338.821 58.0729 338.845 56.9593C338.895 54.7465 341.917 49.6614 342.045 49.4454C342.131 49.3024 342.316 49.2563 342.459 49.3417C342.602 49.4272 342.648 49.6124 342.564 49.7555C342.533 49.8073 339.494 54.9184 339.448 56.9728C339.429 57.8502 339.631 58.4204 340.048 58.6662C340.778 59.0972 342.11 58.5116 342.562 58.2486C342.706 58.1651 342.89 58.214 342.974 58.358C343.058 58.502 343.01 58.6864 342.866 58.7699C342.806 58.8044 341.732 59.4217 340.699 59.4217V59.4236Z" fill="#2F304C"/>
<path d="M344.441 61.6133C342.131 64.0766 339.453 63.851 338.014 62.1192Z" fill="white"/>
<path d="M340.786 63.7426C340.746 63.7426 340.707 63.7426 340.668 63.7407C339.544 63.7071 338.52 63.1993 337.782 62.3113C337.675 62.1836 337.692 61.9925 337.821 61.886C337.947 61.7794 338.139 61.7967 338.245 61.9253C338.871 62.678 339.737 63.1081 340.686 63.1369C341.878 63.1676 343.14 62.5589 344.221 61.406C344.337 61.2841 344.528 61.2783 344.648 61.3925C344.769 61.5068 344.775 61.6978 344.661 61.8188C343.494 63.0629 342.122 63.7416 340.786 63.7416V63.7426Z" fill="#2F304C"/>
<path d="M339.769 65.2007C340.815 65.7633 341.909 65.7134 343.061 65.0059Z" fill="white"/>
<path d="M341.216 65.8852C340.676 65.8852 340.146 65.746 339.626 65.4656C339.479 65.3869 339.424 65.2036 339.503 65.0567C339.582 64.9098 339.767 64.8551 339.912 64.9338C340.876 65.4512 341.855 65.3908 342.903 64.7476C343.046 64.6621 343.232 64.7044 343.318 64.8474C343.405 64.9895 343.361 65.1757 343.219 65.2631C342.542 65.6778 341.873 65.8852 341.216 65.8852Z" fill="#2F304C"/>
<g opacity="0.5">
<path d="M350.848 59.9552C351.691 59.67 352.187 58.9232 351.971 58.2713C351.75 57.6281 350.894 57.3353 350.055 57.6108C349.216 57.8873 348.716 58.6428 348.933 59.2956C349.154 59.9388 350.009 60.2316 350.848 59.9561V59.9552Z" fill="#FCAD88"/>
</g>
<g opacity="0.5">
<path d="M337.792 56.1544C337.592 56.6152 336.938 56.7784 336.336 56.5182C335.726 56.2504 335.414 55.6715 335.615 55.203C335.816 54.7422 336.469 54.579 337.071 54.8392C337.673 55.0993 337.993 55.6859 337.792 56.1544Z" fill="#FCAD88"/>
</g>
<path d="M284.345 107.589C283.523 107.589 282.671 107.42 281.855 107.074C280.307 106.42 278.87 105.181 277.465 103.291C277.271 103.029 277.081 102.762 276.89 102.494C276.099 101.384 275.35 100.333 274.291 99.6258C273.129 98.8501 271.603 98.5314 270.006 98.7282C268.644 98.8953 267.245 99.4127 265.729 100.31C265.537 100.423 265.29 100.36 265.177 100.169C265.064 99.9781 265.127 99.7314 265.318 99.6181C266.933 98.6629 268.434 98.1109 269.907 97.9305C271.695 97.7087 273.415 98.0745 274.738 98.9567C275.92 99.7468 276.747 100.906 277.546 102.028C277.734 102.291 277.92 102.554 278.111 102.811C279.429 104.584 280.756 105.736 282.168 106.334C283.9 107.066 285.881 106.878 287.1 105.862C287.27 105.721 287.524 105.742 287.667 105.914C287.809 106.085 287.786 106.338 287.616 106.481C286.739 107.213 285.574 107.59 284.345 107.59V107.589Z" fill="white"/>
<path d="M386.957 103.515C385.323 93.2232 380.254 79.6652 365.36 73.5173C364.989 73.3647 364.611 73.212 364.225 73.0508L363.267 69.3576C364.956 66.59 378.508 43.7208 370.147 36.7839C370.107 36.0514 369.753 31.2716 366.221 27.9807C363.646 25.5826 360.016 24.5045 355.438 24.7704C348.486 25.1804 344.141 27.876 340.302 30.2501C338.274 31.5048 336.359 32.6885 334.323 33.3317C333.695 33.5333 333.228 34.0239 333.067 34.6517C332.922 35.2469 333.084 35.8431 333.51 36.2856C334.524 37.3234 335.61 38.3055 336.745 39.1906C334.508 42.4172 332.891 57.948 335.272 66.1714C335.514 67.0162 335.796 67.765 336.109 68.4082C335.345 68.5128 334.589 68.6415 333.825 68.8028L332.014 69.181C319.928 71.9007 307.02 88.7506 299.811 98.7768C299.247 99.565 298.234 99.8789 297.3 99.5573L265.652 87.7282C265.419 87.6476 265.177 87.6312 264.952 87.6639C264.108 86.6501 263.713 86.4812 261.5 83.1816C260.035 81.0005 258.876 79.2792 257.308 79.5288C256.125 79.7304 255.321 80.2853 255.047 81.0898C254.806 81.7896 254.975 82.6191 255.546 83.5522C246.284 79.2552 241.111 78.4911 239.726 81.2031C238.479 83.6895 245.448 86.8354 248.006 87.8981C246.872 89.2661 243.605 93.5794 244.281 97.0152C244.562 98.4476 245.487 99.5496 247.024 100.291C251.055 102.23 254.983 103.381 258.371 103.662C258.378 103.751 258.395 103.831 258.411 103.912C258.475 104.314 258.62 104.637 258.846 104.854C258.983 104.99 257.309 104.266 298.669 120.697C302.258 121.735 305.308 121.011 308.51 119.217L316.421 148.556C314.844 159.998 313.604 175.794 313.589 175.979C313.532 176.583 313.637 177.186 313.903 177.782C313.662 188.074 316.196 214.306 318.811 237.939C319.978 248.513 321.153 258.563 322.118 266.433C323.189 275.365 323.977 281.489 324.122 282.358C324.138 282.583 324.21 282.784 324.348 282.969C323.543 284.578 322.425 286.164 321.346 287.185C315.987 290.573 308.238 296.383 308.809 300.229C309.035 301.766 309.896 302.853 311.376 303.472C312.325 303.874 313.452 304.051 314.683 304.051C318.569 304.051 323.446 302.257 326.625 299.947C330.326 297.243 332.466 296.036 336.08 296.616C338.744 297.042 342.075 296.261 343.821 294.797C344.706 294.057 345.181 293.164 345.197 292.223C345.245 289.455 343.998 285.222 343.684 284.192C343.539 283.379 343.458 282.615 343.451 281.875C343.547 281.698 343.587 281.513 343.579 281.319L345.116 229.884C349.035 259.544 354.185 292.601 354.708 295.924C354.732 296.093 354.748 296.182 354.748 296.198C354.812 297.123 355.407 297.912 356.357 298.563C356.325 298.716 356.309 298.869 356.292 299.014C354.12 303.287 349.839 312.733 352.148 316.563C353.58 318.937 356.686 320.482 359.817 320.482C360.203 320.482 360.581 320.458 360.959 320.409C363.075 320.152 366.874 318.904 368.507 313.553C370.051 308.492 370.864 305.361 371.452 303.076C371.975 301.064 372.297 299.841 372.756 298.739C373.407 298.183 373.817 297.5 373.874 296.655C378.05 280.827 374.944 202.805 374.204 185.746C374.47 184.949 374.534 184.064 374.333 183.179C372.442 174.44 371.323 158.025 371.033 145.464C373.399 145.431 375.829 144.619 377.769 143.468C378.428 143.081 378.815 142.792 378.823 142.783C380.536 141.327 382.146 138.817 383.506 135.598C386.91 127.584 388.8 115.151 386.958 103.515H386.957ZM363.3 72.6879L363.54 73.6296C363.54 73.6373 363.533 73.6373 363.533 73.646C358.294 82.2639 346.988 79.3752 345.588 78.9807C344.333 76.8648 343.649 74.0722 343.818 71.7308H343.842C343.859 71.7308 343.866 71.7308 343.883 71.7231C344.02 71.7231 345.605 71.4812 347.254 70.9829C347.302 70.9666 347.366 70.9503 347.431 70.9263C351.349 70.3474 356.122 68.3516 361.328 65.0684L363.3 72.6888V72.6879ZM336.045 65.9525C333.687 57.7772 335.401 43.0834 337.268 39.8568C341.436 43.092 347.914 46.4472 355.631 44.8776C355.752 44.966 355.833 45.0629 355.937 45.1992C358.528 47.8306 356.879 53.0933 355.422 56.4812C355.365 56.6021 355.365 56.7471 355.446 56.8671C355.519 56.988 355.647 57.06 355.784 57.06H357.86C358.013 57.06 358.158 56.964 358.222 56.8268C358.85 55.4664 360.87 51.8703 362.688 51.5727C363.187 51.4844 363.654 51.6687 364.096 52.1362C366.462 54.542 361.972 60.5612 360.958 61.8888C359.518 63.804 352.115 68.2776 349.202 69.4364H349.194C346.402 70.6114 342.226 71.6012 339.337 70.6671C338.604 70.4252 337.953 69.8789 337.39 69.0332C337.237 68.8076 337.093 68.558 336.948 68.293C336.61 67.6412 336.312 66.853 336.046 65.9516L336.045 65.9525ZM255.875 102.493C253.236 101.978 250.338 100.996 247.369 99.564C246.058 98.9285 245.309 98.0434 245.076 96.8607C244.351 93.1992 248.93 88.0575 248.978 88.0095C249.059 87.9135 249.099 87.7762 249.066 87.6476C249.034 87.5189 248.945 87.4143 248.824 87.3663C246.917 86.6098 239.619 83.2949 240.44 81.5727C240.73 81.0092 241.429 80.4543 243.103 80.4543C245.364 80.4543 249.427 81.4844 256.653 84.9682L259.47 87.6552C259.543 87.7359 259.646 87.7676 259.743 87.7676C259.848 87.7676 259.96 87.7272 260.033 87.6466C260.186 87.4853 260.186 87.228 260.026 87.0754L257.161 84.3394C256.219 83.3093 255.736 82.4242 255.736 81.7484C255.736 81.6034 255.76 81.4748 255.801 81.3538C256.042 80.654 256.928 80.4044 257.434 80.3237C258.512 80.1548 259.525 81.684 260.829 83.6232C262.495 86.126 262.945 86.6002 264.153 87.9768C264.136 88.0498 264.105 88.1218 264.08 88.1938C264.048 88.2264 264.023 88.2581 264.008 88.2908C263.758 88.6767 263.196 89.7154 262.511 91.0988C262.237 91.477 261.94 91.8389 261.634 92.2248C260.185 94.0114 258.383 96.2319 255.872 102.493H255.875ZM309.177 118.595C309.144 118.466 309.105 118.338 309.064 118.201C308.147 114.781 306.9 110.17 305.105 103.507L313.128 106.926L313.603 109.099C313.636 109.236 313.732 109.34 313.853 109.389L318.214 111.071L318.616 111.223L324.153 113.355C324.458 113.46 324.764 113.219 324.692 112.873L324.395 111.73L330.993 114.547L335.668 131.751C335.58 131.887 335.531 132.049 335.515 132.226C335.394 133.626 335.934 134.189 336.328 134.608C336.393 134.672 336.449 134.729 336.497 134.785L336.699 135.517C336.497 136.531 334.446 137.126 332.837 136.096C332.282 135.815 331.525 134.857 330.793 133.931C329.537 132.337 327.711 129.94 326.158 131.235C324.379 132.699 323.945 135.452 325.08 138.091C326.432 141.253 330.198 144.327 336.836 144.327C337.545 144.327 338.285 144.295 339.057 144.215L342.549 157.049L317.274 148.302L317.186 148.27L316.719 146.531C311.675 127.838 312.253 129.987 309.18 118.592L309.177 118.595ZM321.046 108.246C322.052 108.673 322.768 108.979 322.857 109.019C323.074 109.856 323.219 110.435 323.316 110.813C323.323 110.821 323.323 110.83 323.323 110.837C323.331 110.861 323.34 110.885 323.34 110.902C323.347 110.909 323.347 110.918 323.347 110.926C323.355 110.95 323.364 110.966 323.364 110.982C323.364 110.982 323.364 110.999 323.371 111.015C323.379 111.031 323.379 111.039 323.379 111.048C323.403 111.121 323.427 111.233 323.46 111.369C323.476 111.409 323.484 111.45 323.492 111.49C323.549 111.699 323.621 111.973 323.709 112.319C323.669 112.302 321.456 111.45 319.187 110.581C319.05 110.524 318.922 110.476 318.784 110.428C316.66 109.608 314.608 108.811 314.342 108.715C314.19 108.031 314.076 107.516 313.997 107.13C313.997 107.13 313.989 107.106 313.98 107.065C313.98 107.049 313.98 107.041 313.973 107.033C313.973 107.025 313.965 107 313.965 106.985V106.969C313.957 106.945 313.949 106.921 313.949 106.897C313.941 106.873 313.932 106.849 313.932 106.816C313.927 106.811 313.925 106.805 313.925 106.8V106.792C313.925 106.787 313.922 106.781 313.917 106.776V106.752C313.917 106.744 313.917 106.735 313.909 106.728C313.909 106.72 313.902 106.704 313.902 106.696C313.894 106.656 313.885 106.615 313.878 106.575C313.87 106.527 313.861 106.479 313.845 106.43V106.422C313.837 106.398 313.829 106.374 313.829 106.349C313.821 106.317 313.812 106.285 313.812 106.269C313.812 106.261 313.812 106.252 313.805 106.245C313.797 106.221 313.788 106.188 313.788 106.164C313.724 105.874 313.644 105.505 313.539 105.046C313.66 105.094 317.948 106.928 320.669 108.087C320.805 108.144 320.926 108.199 321.047 108.248L321.046 108.246ZM336.914 134.053C336.56 133.682 336.222 133.337 336.319 132.299C336.319 132.211 336.351 132.114 336.528 132.033C336.544 132.025 336.561 132.017 336.576 132.017C337.598 131.607 340.889 132.395 341.975 133.361C341.806 134.093 341.629 135.292 341.484 137.239V137.272C341.034 139.67 340.575 141.754 339.707 143.339C339.683 143.347 338.869 143.436 338.845 143.436C331.33 144.104 327.194 140.998 325.81 137.779C324.844 135.502 325.19 133.071 326.662 131.864C326.928 131.639 327.121 131.695 327.209 131.679C328.054 131.776 329.172 133.184 330.162 134.431C330.983 135.478 331.764 136.459 332.439 136.797C334.379 138.036 337.324 137.36 337.509 135.517V135.46C337.566 134.809 337.3 134.471 336.914 134.052V134.053ZM321.899 287.77C322.237 287.449 322.574 287.087 322.896 286.684C323.017 286.547 323.129 286.403 323.242 286.258C323.346 286.122 323.451 285.977 323.548 285.84C324.079 285.107 324.569 284.31 324.98 283.506C327.136 284.737 332.681 284.512 333.993 284.439C335.272 284.366 340.543 283.996 342.675 282.645C342.739 283.61 342.932 284.777 343.214 285.807C336.262 289.83 330.211 290.394 321.899 287.77ZM373.068 296.573C373.068 296.702 373.037 296.935 372.931 297.201C372.883 297.33 372.81 297.458 372.73 297.579V297.588C371.466 299.382 367.668 299.785 365.504 299.801C362.413 299.809 359.147 299.189 357.224 298.119C357.224 298.111 357.216 298.111 357.207 298.111V298.104C356.419 297.653 355.606 297.001 355.542 296.1C355.542 296.084 355.525 295.979 355.494 295.802C354.923 292.133 349.225 255.545 345.266 224.798L344.735 218.055C344.494 215.029 342.619 212.357 339.859 211.094L339.714 211.03C339.513 210.941 339.279 211.03 339.183 211.231C339.095 211.433 339.183 211.674 339.385 211.762L339.521 211.826C342.024 212.969 343.714 215.383 343.931 218.119L344.156 220.992C338.129 232.289 342.322 247.047 343.673 251.103L342.788 280.699C342.748 281.351 342.836 281.407 342.643 281.641C341.967 282.461 338.668 283.37 333.952 283.636C329.631 283.877 326.429 283.435 325.334 282.783C325.077 282.638 324.932 282.478 324.924 282.308C324.924 282.276 324.917 282.236 324.908 282.212C324.892 282.164 324.868 282.05 324.844 281.881C324.594 280.425 323.838 274.623 322.824 266.343C321.689 256.96 320.241 244.399 318.865 231.38C316.121 205.549 314.697 187.485 314.697 179.043C315.268 179.727 316.048 180.411 317.038 181.08C317.626 181.474 318.277 181.86 318.985 182.238C321.383 184.073 324.69 186.245 328.923 188.233C335.368 191.251 344.968 194.26 357.602 194.26C361.255 194.26 365.166 194.011 369.334 193.432C369.6 193.392 369.874 193.36 370.139 193.311C371.297 193.142 372.48 192.949 373.688 192.723C377.47 287.884 373.068 296.012 373.068 296.575V296.573ZM373.543 183.356C373.937 185.078 373.148 186.768 371.732 187.484C362.47 192.264 328.497 187.838 317.489 180.41C316.596 179.799 315.276 178.745 314.713 177.61C314.447 177.087 314.342 176.564 314.391 176.049C314.391 175.728 315.679 159.98 317.159 149.116L343.005 158.057C343.045 158.073 343.093 158.081 343.134 158.081C343.238 158.081 343.335 158.041 343.415 157.976C343.52 157.872 343.568 157.719 343.527 157.574L339.866 144.127C340.784 144.023 341.122 143.926 341.436 143.894C341.581 144.529 341.797 144.537 341.95 144.546C342.103 144.57 342.666 144.643 343.559 144.747C352.161 146.912 361.246 149.004 370.347 149.672C370.668 158.741 371.634 174.617 373.542 183.356H373.543ZM382.797 135.291C381.517 138.292 380.021 140.642 378.436 142.051C376.585 142.003 374.203 141.254 372.972 139.733C372.015 138.551 371.717 136.966 372.095 135.001C372.135 134.785 371.999 134.575 371.781 134.535C371.563 134.495 371.346 134.631 371.306 134.849C370.437 139.347 372.955 142.091 377.268 142.743C370.493 146.662 349.998 144.722 342.217 143.773C342.217 143.768 342.214 143.762 342.209 143.757C342.097 143.371 342.081 142.292 342.072 141.882C342.474 136.217 342.522 133.762 342.909 132.99L365.859 129.812C366.873 129.699 367.669 128.894 367.782 127.864L368.087 125.04C368.522 120.944 369.069 115.842 369.777 108.117C369.793 107.891 369.632 107.698 369.415 107.674C369.189 107.658 368.996 107.819 368.972 108.045C368.787 110.12 368.61 111.996 368.441 113.726C367.259 121.587 365.609 127.824 361.77 129.562L342.715 132.201C342.579 132.193 342.418 132.217 342.249 132.555C341.54 131.847 337.935 130.697 336.358 131.235L331.716 114.152C331.683 114.031 331.603 113.935 331.49 113.887L324.135 110.749L323.58 108.625C323.549 108.504 323.468 108.399 323.347 108.351L322.453 107.973L327.129 98.6866L327.539 97.8658C327.587 97.7698 327.546 97.6488 327.45 97.6008C327.394 97.5682 327.338 97.5682 327.281 97.5932C327.241 97.6095 327.209 97.6412 327.184 97.6815C324.786 101.89 322.678 104.964 320.634 107.201L313.135 103.998C312.837 103.877 312.507 104.143 312.58 104.457L312.91 105.962L304.662 102.446C304.517 102.382 304.356 102.406 304.236 102.51C304.123 102.615 304.074 102.768 304.115 102.92L308.291 118.402C306.206 119.641 304.17 120.341 302.006 120.358C301.202 119.344 296.945 113.574 299.56 107.812C299.649 107.611 299.56 107.37 299.359 107.281C299.157 107.185 298.916 107.273 298.828 107.474C296.334 112.963 299.592 118.394 300.969 120.31C300.309 120.253 299.625 120.141 298.925 119.939L259.358 104.232C259.261 104.119 259.197 103.974 259.157 103.797C258.481 101.013 263.365 90.7445 264.684 88.7247C264.829 88.5077 265.111 88.3868 265.377 88.4828C289.742 97.5836 295.593 99.7724 296.767 100.215H296.774C296.78 100.215 296.785 100.217 296.791 100.223H296.798C296.806 100.223 296.831 100.23 296.863 100.247C296.879 100.255 296.887 100.255 296.903 100.263C296.911 100.263 296.919 100.271 296.936 100.271C296.941 100.276 296.946 100.278 296.952 100.278H296.96L296.967 100.286L296.975 100.294C296.986 100.294 296.994 100.296 296.999 100.301H297.015L297.023 100.309H297.031C298.31 100.752 299.686 100.325 300.467 99.2386C307.5 89.4533 320.326 72.6284 332.179 69.9644L333.982 69.5861C334.819 69.4095 335.664 69.2645 336.509 69.1512C337.225 70.334 338.078 71.0904 339.076 71.4284C339.937 71.7096 340.854 71.8469 341.924 71.8469C342.27 71.8469 342.633 71.8306 343.011 71.8066C342.858 74.3333 343.615 77.3103 344.983 79.5317C345.031 79.6124 345.111 79.6767 345.2 79.7007C345.264 79.7247 347.976 80.5618 351.468 80.5618C355.693 80.5618 361.076 79.3311 364.287 73.9474C364.545 74.0444 364.794 74.149 365.052 74.2536C379.6 80.2642 384.557 93.5496 386.158 103.64C387.985 115.155 386.125 127.442 382.794 135.289L382.797 135.291Z" fill="#2F304C"/>
<path d="M271.174 236.117L222.671 264.304L197.648 249.856L246.151 221.67L271.174 236.117Z" fill="white"/>
<path d="M222.671 264.706C222.602 264.706 222.532 264.687 222.469 264.652L197.447 250.205C197.323 250.133 197.245 250 197.245 249.856C197.245 249.712 197.321 249.58 197.446 249.508L245.948 221.321C246.072 221.248 246.228 221.248 246.351 221.321L271.374 235.768C271.498 235.84 271.575 235.973 271.575 236.117C271.575 236.261 271.5 236.393 271.375 236.465L222.873 264.652C222.81 264.688 222.74 264.707 222.671 264.707V264.706ZM198.45 249.854L222.67 263.838L270.371 236.117L246.151 222.133L198.45 249.854Z" fill="#2F304C"/>
<path d="M214.401 249.684C212.102 251.002 212.085 253.151 214.361 254.482C216.638 255.815 220.347 255.825 222.645 254.507C224.945 253.188 224.965 251.04 222.687 249.707C220.411 248.376 216.701 248.365 214.401 249.684Z" fill="white"/>
<path d="M218.526 255.883C216.942 255.883 215.358 255.531 214.157 254.829C212.931 254.112 212.258 253.136 212.263 252.083C212.267 251.024 212.955 250.048 214.2 249.335C216.609 247.954 220.505 247.966 222.89 249.36C224.116 250.077 224.789 251.052 224.784 252.104C224.78 253.163 224.091 254.14 222.845 254.856C221.651 255.541 220.088 255.883 218.526 255.883ZM214.601 250.033C213.616 250.598 213.071 251.328 213.068 252.087C213.064 252.841 213.596 253.568 214.565 254.135C216.726 255.399 220.26 255.41 222.445 254.159C223.432 253.592 223.978 252.862 223.98 252.101C223.984 251.348 223.452 250.621 222.484 250.055C220.322 248.789 216.785 248.78 214.601 250.033Z" fill="#2F304C"/>
<path d="M233.956 250.318C233.818 250.318 233.682 250.247 233.607 250.118C233.496 249.926 233.561 249.68 233.753 249.568L245.159 242.94C245.35 242.829 245.597 242.892 245.709 243.085C245.82 243.277 245.755 243.523 245.563 243.635L234.157 250.263C234.094 250.3 234.025 250.318 233.956 250.318Z" fill="#2F304C"/>
<path d="M227.81 246.74C227.672 246.74 227.536 246.669 227.461 246.54C227.35 246.348 227.415 246.102 227.607 245.99L252.6 231.466C252.791 231.356 253.038 231.418 253.15 231.611C253.261 231.803 253.196 232.05 253.004 232.162L228.012 246.685C227.948 246.722 227.879 246.74 227.81 246.74Z" fill="#2F304C"/>
<path d="M221.663 243.161C221.525 243.161 221.39 243.09 221.315 242.962C221.203 242.77 221.269 242.523 221.461 242.412L246.453 227.888C246.643 227.777 246.891 227.84 247.003 228.033C247.115 228.225 247.049 228.472 246.857 228.583L221.865 243.107C221.801 243.143 221.732 243.161 221.663 243.161Z" fill="#2F304C"/>
<path d="M323.909 293.024C323.9 293.024 323.892 293.024 323.883 293.023C322.378 292.883 321.304 292.392 320.695 291.565C319.97 290.583 320.186 289.499 320.196 289.454C320.228 289.302 320.376 289.205 320.528 289.236C320.679 289.267 320.777 289.415 320.747 289.568C320.745 289.576 320.576 290.462 321.152 291.237C321.664 291.926 322.6 292.337 323.934 292.461C324.088 292.476 324.203 292.613 324.188 292.767C324.175 292.913 324.052 293.023 323.908 293.023L323.909 293.024Z" fill="white"/>
<path d="M321.286 294.82C321.277 294.82 321.269 294.82 321.26 294.819C319.755 294.679 318.683 294.189 318.072 293.361C317.347 292.379 317.563 291.295 317.573 291.25C317.605 291.098 317.748 290.999 317.905 291.032C318.057 291.064 318.155 291.212 318.124 291.364C318.122 291.373 317.953 292.258 318.53 293.034C319.043 293.722 319.978 294.134 321.311 294.258C321.466 294.272 321.58 294.409 321.565 294.565C321.552 294.711 321.429 294.82 321.285 294.82H321.286Z" fill="white"/>
<path d="M318.663 296.616C318.655 296.616 318.646 296.616 318.637 296.615C317.132 296.475 316.059 295.984 315.448 295.157C314.724 294.175 314.94 293.091 314.949 293.046C314.982 292.894 315.125 292.797 315.281 292.828C315.433 292.86 315.531 293.007 315.5 293.16C315.498 293.169 315.329 294.054 315.906 294.83C316.419 295.518 317.355 295.93 318.688 296.054C318.843 296.069 318.957 296.206 318.943 296.361C318.929 296.507 318.806 296.616 318.662 296.616H318.663Z" fill="white"/>
<path d="M362.285 306.77C360.429 306.77 358.756 306.107 357.289 304.79C357.173 304.686 357.163 304.509 357.267 304.393C357.371 304.276 357.549 304.267 357.664 304.371C359.527 306.044 361.653 306.57 364.173 305.978C364.331 305.941 364.476 306.036 364.512 306.188C364.547 306.339 364.453 306.491 364.302 306.527C363.608 306.69 362.936 306.771 362.285 306.771V306.77Z" fill="white"/>
<path d="M361.103 309.682C359.248 309.682 357.574 309.02 356.107 307.702C355.992 307.598 355.982 307.419 356.086 307.304C356.191 307.188 356.368 307.178 356.484 307.283C358.346 308.955 360.475 309.481 362.992 308.889C363.147 308.853 363.296 308.948 363.331 309.099C363.367 309.251 363.273 309.403 363.121 309.438C362.427 309.601 361.754 309.683 361.103 309.683V309.682Z" fill="white"/>
<path d="M359.922 312.595C358.066 312.595 356.393 311.932 354.926 310.615C354.81 310.512 354.801 310.334 354.904 310.218C355.008 310.102 355.187 310.092 355.302 310.197C357.164 311.869 359.29 312.395 361.81 311.803C361.966 311.766 362.114 311.861 362.149 312.013C362.185 312.165 362.091 312.316 361.939 312.352C361.245 312.515 360.573 312.597 359.922 312.597V312.595Z" fill="white"/>
</g>
<defs>
<clipPath id="clip0_48_71">
<rect width="412.8" height="320.68" fill="white"/>
</clipPath>
</defs>
</svg>
