<svg width="593" height="300" viewBox="0 0 593 300" fill="none" xmlns="http://www.w3.org/2000/svg">
<g opacity="0.5" clip-path="url(#clip0_235_14)">
<path d="M212.773 13.4836C213.668 6.05787 219.482 0.504883 226.37 0.504883H578.244C586.525 0.504883 592.917 8.41912 591.842 17.343L560.722 276.396C560.388 279.14 559.387 281.631 557.905 283.683L540.896 273.554L180.424 278.773L212.773 13.4836ZM212.398 243.07H525.149C531.557 243.07 536.866 238.811 537.558 233.128L561.821 34.5719C562.66 27.7325 556.57 21.6665 548.867 21.6665H236.116C229.709 21.6665 224.4 25.9249 223.708 31.6082L199.444 230.164C198.605 237.004 204.696 243.07 212.398 243.07Z" fill="#0075FF"/>
<path d="M179.845 279.294L545.96 273.994L546.009 273.554L576.787 17.3999C577.349 12.7344 575.94 8.11779 572.935 4.72249C570.232 1.6773 566.593 0 562.684 0H226.37C219.254 0 213.188 5.77283 212.268 13.4184L179.845 279.286V279.294ZM545.056 272.984L180.994 278.26L213.277 13.5405C214.132 6.39978 219.767 1.00963 226.37 1.00963H562.684C566.3 1.00963 569.67 2.5648 572.178 5.39829C574.995 8.57375 576.306 12.9054 575.785 17.2778L545.065 272.984H545.056Z" fill="#0075FF"/>
<path d="M42.4049 272.812H81.398V271.754C81.398 268.53 78.7762 265.908 75.5519 265.908H48.2429C45.0186 265.908 42.3967 268.53 42.3967 271.754V272.812H42.4049Z" fill="white"/>
<path d="M41.9 273.318H81.9109V269.548C81.9109 267.26 80.0544 265.403 77.7665 265.403H46.0444C43.7565 265.403 41.9 267.26 41.9 269.548V273.318ZM80.8931 272.308H42.9096V269.556C42.9096 267.83 44.3101 266.421 46.0363 266.421H77.7583C79.4845 266.421 80.885 267.822 80.885 269.556V272.308H80.8931Z" fill="#0075FF"/>
<path d="M88.0501 272.812H127.043V271.754C127.043 268.53 124.421 265.908 121.197 265.908H93.8881C90.6638 265.908 88.042 268.53 88.042 271.754V272.812H88.0501Z" fill="white"/>
<path d="M87.5453 273.318H127.556V269.548C127.556 267.26 125.7 265.403 123.412 265.403H91.6897C89.4017 265.403 87.5453 267.26 87.5453 269.548V273.318ZM126.547 272.308H88.5631V269.556C88.5631 267.83 89.9635 266.421 91.6897 266.421H123.412C125.138 266.421 126.538 267.822 126.538 269.556V272.308H126.547Z" fill="#0075FF"/>
<path d="M133.703 272.812H172.697V271.754C172.697 268.53 170.075 265.908 166.85 265.908H139.541C136.317 265.908 133.695 268.53 133.695 271.754V272.812H133.703Z" fill="white"/>
<path d="M133.191 273.318H173.201V269.548C173.201 267.26 171.345 265.403 169.057 265.403H137.335C135.047 265.403 133.191 267.26 133.191 269.548V273.318ZM172.192 272.308H134.208V269.556C134.208 267.83 135.609 266.421 137.343 266.421H169.065C170.791 266.421 172.2 267.822 172.2 269.556V272.308H172.192Z" fill="#0075FF"/>
<path d="M179.349 272.812H218.342V271.754C218.342 268.53 215.72 265.908 212.496 265.908H185.187C181.963 265.908 179.341 268.53 179.341 271.754V272.812H179.349Z" fill="white"/>
<path d="M178.844 273.318H218.855V269.548C218.855 267.26 216.999 265.403 214.711 265.403H182.988C180.701 265.403 178.844 267.26 178.844 269.548V273.318ZM217.837 272.308H179.854V269.556C179.854 267.83 181.254 266.421 182.98 266.421H214.702C216.429 266.421 217.829 267.822 217.829 269.556V272.308H217.837Z" fill="#0075FF"/>
<path d="M224.994 272.812H263.987V271.754C263.987 268.53 261.365 265.908 258.141 265.908H230.832C227.608 265.908 224.986 268.53 224.986 271.754V272.812H224.994Z" fill="white"/>
<path d="M224.489 273.318H264.5V269.548C264.5 267.26 262.644 265.403 260.356 265.403H228.634C226.346 265.403 224.489 267.26 224.489 269.548V273.318ZM263.49 272.308H225.507V269.556C225.507 267.83 226.916 266.421 228.642 266.421H260.364C262.09 266.421 263.49 267.822 263.49 269.556V272.308Z" fill="#0075FF"/>
<path d="M224.994 272.812H263.987V271.754C263.987 268.53 261.365 265.908 258.141 265.908H230.832C227.608 265.908 224.986 268.53 224.986 271.754V272.812H224.994Z" fill="white"/>
<path d="M224.489 273.318H264.5V269.548C264.5 267.26 262.644 265.403 260.356 265.403H228.634C226.346 265.403 224.489 267.26 224.489 269.548V273.318ZM263.49 272.308H225.507V269.556C225.507 267.83 226.916 266.421 228.642 266.421H260.364C262.09 266.421 263.49 267.822 263.49 269.556V272.308Z" fill="#0075FF"/>
<path d="M270.648 272.812H309.641V271.754C309.641 268.53 307.019 265.908 303.795 265.908H276.486C273.261 265.908 270.639 268.53 270.639 271.754V272.812H270.648Z" fill="white"/>
<path d="M270.135 273.318H310.146V269.548C310.146 267.26 308.289 265.403 306.001 265.403H274.279C271.991 265.403 270.135 267.26 270.135 269.548V273.318ZM309.136 272.308H271.152V269.556C271.152 267.83 272.553 266.421 274.279 266.421H306.001C307.727 266.421 309.128 267.822 309.128 269.556V272.308H309.136Z" fill="#0075FF"/>
<path d="M316.293 272.812H355.286V271.754C355.286 268.53 352.664 265.908 349.44 265.908H322.131C318.906 265.908 316.285 268.53 316.285 271.754V272.812H316.293Z" fill="white"/>
<path d="M315.788 273.318H355.799V269.548C355.799 267.26 353.942 265.403 351.654 265.403H319.932C317.644 265.403 315.788 267.26 315.788 269.548V273.318ZM354.781 272.308H316.798V269.556C316.798 267.83 318.198 266.421 319.924 266.421H351.646C353.372 266.421 354.773 267.822 354.773 269.556V272.308H354.781Z" fill="#0075FF"/>
<path d="M361.938 272.812H400.931V271.754C400.931 268.53 398.309 265.908 395.085 265.908H367.776C364.552 265.908 361.93 268.53 361.93 271.754V272.812H361.938Z" fill="white"/>
<path d="M361.433 273.318H401.444V269.548C401.444 267.26 399.588 265.403 397.3 265.403H365.578C363.29 265.403 361.433 267.26 361.433 269.548V273.318ZM400.426 272.308H362.443V269.556C362.443 267.83 363.843 266.421 365.569 266.421H397.292C399.018 266.421 400.426 267.822 400.426 269.556V272.308Z" fill="#0075FF"/>
<path d="M361.498 272.812H400.491V271.754C400.491 268.53 397.87 265.908 394.645 265.908H367.336C364.112 265.908 361.49 268.53 361.49 271.754V272.812H361.498Z" fill="white"/>
<path d="M360.994 273.318H401.004V269.548C401.004 267.26 399.148 265.403 396.86 265.403H365.138C362.85 265.403 360.994 267.26 360.994 269.548V273.318ZM399.987 272.308H362.003V269.556C362.003 267.83 363.404 266.421 365.13 266.421H396.852C398.578 266.421 399.978 267.822 399.978 269.556V272.308H399.987Z" fill="#0075FF"/>
<path d="M407.144 272.812H446.137V271.754C446.137 268.53 443.515 265.908 440.291 265.908H412.982C409.757 265.908 407.135 268.53 407.135 271.754V272.812H407.144Z" fill="white"/>
<path d="M406.639 273.318H446.65V269.548C446.65 267.26 444.793 265.403 442.505 265.403H410.783C408.495 265.403 406.639 267.26 406.639 269.548V273.318ZM445.632 272.308H407.648V269.556C407.648 267.83 409.049 266.421 410.775 266.421H442.497C444.223 266.421 445.624 267.822 445.624 269.556V272.308H445.632Z" fill="#0075FF"/>
<path d="M452.789 272.812H491.782V271.754C491.782 268.53 489.16 265.908 485.936 265.908H458.627C455.403 265.908 452.781 268.53 452.781 271.754V272.812H452.789Z" fill="white"/>
<path d="M452.284 273.318H492.295V269.548C492.295 267.26 490.438 265.403 488.151 265.403H456.428C454.14 265.403 452.284 267.26 452.284 269.548V273.318ZM491.285 272.308H453.302V269.556C453.302 267.83 454.702 266.421 456.437 266.421H488.159C489.885 266.421 491.285 267.822 491.285 269.556V272.308Z" fill="#0075FF"/>
<path d="M498.499 272.812H537.492V271.754C537.492 268.53 534.871 265.908 531.646 265.908H504.337C501.113 265.908 498.491 268.53 498.491 271.754V272.812H498.499Z" fill="white"/>
<path d="M497.995 273.318H538.005V269.548C538.005 267.26 536.149 265.403 533.861 265.403H502.139C499.851 265.403 497.995 267.26 497.995 269.548V273.318ZM536.988 272.308H499.004V269.556C499.004 267.83 500.405 266.421 502.131 266.421H533.853C535.579 266.421 536.979 267.822 536.979 269.556V272.308H536.988Z" fill="#0075FF"/>
<path d="M384.687 11.0902C384.476 14.2249 382.343 16.7653 379.924 16.7653C377.506 16.7653 375.723 14.2249 375.943 11.0902C376.154 7.95541 378.288 5.41504 380.706 5.41504C383.124 5.41504 384.907 7.95541 384.687 11.0902Z" fill="white"/>
<path d="M379.924 17.27C382.595 17.27 384.956 14.5098 385.192 11.1227C385.322 9.20925 384.761 7.4261 383.653 6.24548C382.847 5.3824 381.805 4.91016 380.698 4.91016C378.027 4.91016 375.666 7.67037 375.43 11.0575C375.299 12.971 375.861 14.7541 376.969 15.9347C377.775 16.7978 378.817 17.27 379.924 17.27ZM384.183 11.0494C383.987 13.9154 382.074 16.2523 379.924 16.2523C379.094 16.2523 378.328 15.9021 377.709 15.2426C376.789 14.2574 376.333 12.7593 376.447 11.1227C376.643 8.25661 378.548 5.91979 380.706 5.91979C381.536 5.91979 382.302 6.26991 382.921 6.92943C383.841 7.91463 384.297 9.4128 384.191 11.0494H384.183Z" fill="#0075FF"/>
<path d="M525.149 243.07H212.398C204.696 243.07 198.613 237.004 199.444 230.165L223.708 31.6086C224.4 25.9172 229.717 21.667 236.116 21.667H548.867C556.57 21.667 562.652 27.7329 561.821 34.5724L537.558 233.129C536.866 238.82 531.549 243.07 525.149 243.07Z" fill="white"/>
<path d="M212.398 243.575H525.149C531.785 243.575 537.338 239.105 538.062 233.185L562.318 34.6293C562.709 31.4457 561.691 28.3028 559.452 25.7787C556.855 22.8394 552.995 21.1621 548.867 21.1621H236.116C229.481 21.1621 223.928 25.6322 223.203 31.5516L198.939 230.108C198.548 233.291 199.566 236.434 201.805 238.958C204.402 241.898 208.262 243.575 212.39 243.575H212.398ZM548.867 22.1717C552.702 22.1717 556.285 23.7269 558.695 26.4464C560.738 28.7588 561.667 31.6167 561.317 34.5072L537.053 233.063C536.393 238.478 531.272 242.565 525.141 242.565H212.39C208.555 242.565 204.972 241.01 202.562 238.291C200.519 235.986 199.59 233.12 199.941 230.23L224.204 31.6737C224.864 26.2591 229.985 22.1717 236.116 22.1717H548.867Z" fill="#0075FF"/>
<path d="M7.53989 272.813H544.348C551.131 272.813 556.618 278.781 556.618 286.15C556.618 293.519 551.122 299.487 544.348 299.487H7.53989C3.65605 299.487 0.505001 296.336 0.505001 292.452V279.84C0.505001 275.956 3.65605 272.805 7.53989 272.805V272.813Z" fill="#0075FF"/>
<path d="M337.918 300H544.348C551.399 300 557.131 293.788 557.131 286.15C557.131 278.513 551.399 272.309 544.348 272.309H338.806V273.326H544.348C550.837 273.326 556.114 279.083 556.114 286.159C556.114 293.234 550.837 298.991 544.348 298.991H337.918V300Z" fill="#0075FF"/>
<path d="M7.53984 300H366.758C370.919 300 374.298 296.621 374.298 292.461V279.848C374.298 275.688 370.919 272.309 366.758 272.309H7.53984C3.37916 272.309 0.000135252 275.688 0.000135252 279.848V292.461C0.000135252 296.621 3.37916 300 7.53984 300ZM366.758 273.318C370.357 273.318 373.28 276.249 373.28 279.84V292.452C373.28 296.051 370.349 298.974 366.758 298.974H7.53984C3.94098 298.974 1.01791 296.043 1.01791 292.452V279.84C1.01791 276.241 3.94912 273.318 7.53984 273.318H366.758Z" fill="#0075FF"/>
<path d="M423.77 287.99H396.046C395.402 287.99 394.881 287.42 394.881 286.728V280.98C394.881 280.28 395.402 279.718 396.046 279.718H423.77C424.413 279.718 424.934 280.288 424.934 280.98V286.728C424.934 287.428 424.413 287.99 423.77 287.99Z" fill="white"/>
<path d="M396.046 288.495H423.77C424.69 288.495 425.439 287.697 425.439 286.72V280.971C425.439 279.994 424.69 279.196 423.77 279.196H396.046C395.126 279.196 394.377 279.994 394.377 280.971V286.72C394.377 287.697 395.126 288.495 396.046 288.495ZM423.77 280.222C424.128 280.222 424.43 280.564 424.43 280.979V286.728C424.43 287.143 424.136 287.485 423.77 287.485H396.046C395.688 287.485 395.386 287.143 395.386 286.728V280.979C395.386 280.564 395.679 280.222 396.046 280.222H423.77Z" fill="#0075FF"/>
<path d="M457.837 287.99H430.113C429.469 287.99 428.948 287.42 428.948 286.728V280.98C428.948 280.28 429.469 279.718 430.113 279.718H457.837C458.48 279.718 459.001 280.288 459.001 280.98V286.728C459.001 287.428 458.48 287.99 457.837 287.99Z" fill="white"/>
<path d="M430.113 288.495H457.837C458.757 288.495 459.506 287.697 459.506 286.72V280.971C459.506 279.994 458.757 279.196 457.837 279.196H430.113C429.193 279.196 428.444 279.994 428.444 280.971V286.72C428.444 287.697 429.193 288.495 430.113 288.495ZM457.837 280.222C458.195 280.222 458.496 280.564 458.496 280.979V286.728C458.496 287.143 458.203 287.485 457.837 287.485H430.113C429.754 287.485 429.453 287.143 429.453 286.728V280.979C429.453 280.564 429.746 280.222 430.113 280.222H457.837Z" fill="#0075FF"/>
<path d="M510.403 285.54H465.181C464.131 285.54 463.284 285.312 463.284 285.027V282.682C463.284 282.397 464.131 282.169 465.181 282.169H510.403C511.454 282.169 512.3 282.397 512.3 282.682V285.027C512.3 285.312 511.454 285.54 510.403 285.54Z" fill="white"/>
<path d="M465.181 286.044H510.411C511.136 286.044 512.813 285.947 512.813 285.018V282.673C512.813 281.753 511.128 281.647 510.411 281.647H465.181C464.457 281.647 462.779 281.745 462.779 282.673V285.018C462.779 285.938 464.465 286.044 465.181 286.044ZM511.795 284.839C511.584 284.921 511.095 285.035 510.403 285.035H465.173C464.481 285.035 463.992 284.929 463.781 284.839V282.861C463.992 282.779 464.481 282.665 465.173 282.665H510.403C511.095 282.665 511.584 282.771 511.795 282.861V284.839Z" fill="#0075FF"/>
<path d="M524.033 284.082C524.033 285.906 522.673 287.379 520.996 287.379C519.319 287.379 517.959 285.906 517.959 284.082C517.959 282.258 519.319 280.784 520.996 280.784C522.673 280.784 524.033 282.258 524.033 284.082Z" fill="white"/>
<path d="M521.004 287.884C522.958 287.884 524.546 286.174 524.546 284.082C524.546 281.989 522.958 280.279 521.004 280.279C519.05 280.279 517.462 281.989 517.462 284.082C517.462 286.174 519.05 287.884 521.004 287.884ZM521.004 281.289C522.397 281.289 523.528 282.543 523.528 284.082C523.528 285.621 522.397 286.874 521.004 286.874C519.612 286.874 518.48 285.621 518.48 284.082C518.48 282.543 519.612 281.289 521.004 281.289Z" fill="#0075FF"/>
<path d="M541.384 284.082C541.384 287.086 539.145 289.521 536.377 289.521C533.608 289.521 531.369 287.086 531.369 284.082C531.369 281.077 533.608 278.643 536.377 278.643C539.145 278.643 541.384 281.077 541.384 284.082Z" fill="white"/>
<path d="M536.377 290.034C539.414 290.034 541.889 287.363 541.889 284.082C541.889 280.801 539.414 278.13 536.377 278.13C533.34 278.13 530.865 280.801 530.865 284.082C530.865 287.363 533.34 290.034 536.377 290.034ZM536.377 279.148C538.86 279.148 540.88 281.362 540.88 284.082C540.88 286.801 538.86 289.016 536.377 289.016C533.894 289.016 531.874 286.801 531.874 284.082C531.874 281.362 533.894 279.148 536.377 279.148Z" fill="#0075FF"/>
<path d="M262.921 78.2875H300.082C310.74 78.2875 320.478 69.6486 321.83 58.9904C323.181 48.3322 315.642 39.6934 304.991 39.6934H267.83C262.896 39.6934 258.385 43.6912 257.759 48.6254L255.12 69.3473C254.493 74.2815 257.986 78.2793 262.921 78.2793V78.2875Z" fill="white"/>
<path d="M262.921 78.7919H300.082C310.968 78.7919 320.95 69.9413 322.334 59.0552C323.01 53.722 321.561 48.7227 318.247 44.961C314.974 41.24 310.259 39.1963 304.991 39.1963H267.83C262.66 39.1963 257.913 43.4058 257.262 48.5761L254.624 69.2981C254.298 71.8466 254.998 74.2404 256.578 76.0398C258.149 77.823 260.396 78.8 262.921 78.8V78.7919ZM304.991 40.2059C309.966 40.2059 314.404 42.1356 317.49 45.6286C320.608 49.1705 321.976 53.893 321.333 58.9249C320.014 69.3225 310.479 77.7741 300.09 77.7741H262.929C260.706 77.7741 258.719 76.911 257.351 75.3559C255.959 73.7763 255.348 71.6675 255.641 69.4121L258.28 48.6901C258.874 44.0083 263.165 40.1978 267.847 40.1978H305.008L304.991 40.2059Z" fill="#0075FF"/>
<path d="M236.499 50.0588H248.647L250.211 37.7314H267.366L265.795 50.0588H278.301L276.119 67.2144H263.613L262.049 79.5417H244.894L246.465 67.2144H234.317L236.499 50.0588Z" fill="#0075FF"/>
<path d="M244.324 80.0465H262.497L264.061 67.7192H276.567L278.879 49.5539H266.373L267.936 37.2266H249.763L248.191 49.5539H236.043L233.731 67.7192H245.879L244.308 80.0465H244.324ZM261.602 79.0368H245.472L247.043 66.7095H234.895L236.947 50.5717H249.095L250.667 38.2443H266.796L265.233 50.5717H277.739L275.688 66.7095H263.181L261.618 79.0368H261.602Z" fill="white"/>
<path d="M375.071 85.2246H424.495V86.2342H375.071V85.2246Z" fill="#0075FF"/>
<path d="M492.922 85.2246H542.345V86.2342H492.922V85.2246Z" fill="#0075FF"/>
<path d="M434.941 85.2246H484.365V86.2342H434.941V85.2246Z" fill="#0075FF"/>
<path d="M553.655 100.939H215.777L211.502 135.633H548.899L553.655 100.939Z" fill="white"/>
<path d="M210.924 136.138H549.339L554.233 100.435H215.329L215.272 100.882L210.924 136.138ZM548.46 135.12H212.072L216.225 101.444H553.068L548.452 135.12H548.46Z" fill="#0075FF"/>
<path d="M465.784 128.501H500.315C506.218 128.501 511.616 123.713 512.365 117.81C513.115 111.907 508.938 107.119 503.035 107.119H468.503C462.6 107.119 457.202 111.907 456.453 117.81C455.704 123.713 459.881 128.501 465.784 128.501Z" fill="white"/>
<path d="M465.784 129.006H500.307C506.446 129.006 512.08 124.015 512.862 117.867C513.245 114.846 512.422 112.013 510.542 109.88C508.685 107.771 506.015 106.606 503.026 106.606H468.495C462.356 106.606 456.722 111.606 455.94 117.745C455.557 120.766 456.38 123.599 458.26 125.733C460.117 127.841 462.787 129.006 465.776 129.006H465.784ZM503.034 107.624C505.73 107.624 508.123 108.666 509.792 110.555C511.478 112.469 512.211 115.026 511.869 117.745C511.152 123.396 505.966 127.996 500.323 127.996H465.8C463.105 127.996 460.711 126.954 459.042 125.065C457.357 123.151 456.624 120.595 456.966 117.875C457.682 112.225 462.861 107.624 468.511 107.624H503.043H503.034Z" fill="#0075FF"/>
<path d="M395.24 128.501H429.771C435.674 128.501 441.072 123.713 441.821 117.81C442.57 111.907 438.393 107.119 432.49 107.119H397.959C392.056 107.119 386.658 111.907 385.909 117.81C385.16 123.713 389.337 128.501 395.24 128.501Z" fill="white"/>
<path d="M395.24 129.006H429.771C435.91 129.006 441.545 124.015 442.326 117.867C442.709 114.846 441.887 112.013 440.006 109.88C438.149 107.771 435.479 106.606 432.49 106.606H397.959C391.82 106.606 386.186 111.606 385.404 117.745C385.021 120.766 385.844 123.599 387.725 125.733C389.581 127.841 392.252 129.006 395.24 129.006ZM432.482 107.624C435.177 107.624 437.571 108.666 439.24 110.555C440.926 112.469 441.659 115.026 441.317 117.745C440.6 123.396 435.413 127.996 429.771 127.996H395.24C392.545 127.996 390.151 126.954 388.482 125.065C386.796 123.151 386.064 120.595 386.405 117.875C387.122 112.225 392.309 107.624 397.951 107.624H432.482Z" fill="#0075FF"/>
<path d="M324.011 128.501H358.543C364.446 128.501 369.844 123.713 370.593 117.81C371.342 111.907 367.165 107.119 361.262 107.119H326.731C320.828 107.119 315.43 111.907 314.68 117.81C313.931 123.713 318.108 128.501 324.011 128.501Z" fill="white"/>
<path d="M324.012 129.006H358.543C364.682 129.006 370.316 124.015 371.098 117.867C371.481 114.846 370.658 112.013 368.777 109.88C366.921 107.771 364.25 106.606 361.262 106.606H326.731C320.592 106.606 314.957 111.606 314.176 117.745C313.793 120.766 314.615 123.599 316.496 125.733C318.353 127.841 321.023 129.006 324.012 129.006ZM361.254 107.624C363.949 107.624 366.343 108.666 368.012 110.555C369.697 112.469 370.43 115.026 370.088 117.745C369.372 123.396 364.193 127.996 358.543 127.996H324.012C321.316 127.996 318.923 126.954 317.253 125.065C315.568 123.151 314.835 120.595 315.177 117.875C315.894 112.225 321.08 107.624 326.723 107.624H361.254Z" fill="#0075FF"/>
<path d="M254.314 128.501H288.846C294.749 128.501 300.147 123.713 300.896 117.81C301.645 111.907 297.468 107.119 291.565 107.119H257.034C251.131 107.119 245.733 111.907 244.983 117.81C244.234 123.713 248.411 128.501 254.314 128.501Z" fill="white"/>
<path d="M254.314 129.006H288.837C294.977 129.006 300.611 124.015 301.393 117.867C301.775 114.846 300.953 112.013 299.072 109.88C297.216 107.771 294.545 106.606 291.557 106.606H257.026C250.886 106.606 245.252 111.606 244.47 117.745C244.088 120.766 244.91 123.599 246.791 125.733C248.647 127.841 251.318 129.006 254.306 129.006H254.314ZM291.565 107.624C294.26 107.624 296.654 108.666 298.323 110.555C300.008 112.469 300.741 115.026 300.399 117.745C299.683 123.396 294.496 127.996 288.854 127.996H254.331C251.636 127.996 249.242 126.954 247.573 125.065C245.887 123.151 245.154 120.595 245.496 117.875C246.213 112.225 251.399 107.624 257.042 107.624H291.573H291.565Z" fill="#0075FF"/>
<path d="M219.571 160.784H484.739V161.794H219.571V160.784Z" fill="#0075FF"/>
<path d="M218 173.136H483.167V174.154H218V173.136Z" fill="#0075FF"/>
<path d="M216.494 185.016H481.661V186.033H216.494V185.016Z" fill="#0075FF"/>
<path d="M558.312 283.976C559.883 281.802 560.893 279.205 561.227 276.453L592.346 17.3999C592.908 12.7344 591.499 8.11779 588.495 4.72249C585.792 1.6773 582.152 0 578.244 0H268.481V1.00963H578.244C581.859 1.00963 585.23 2.5648 587.738 5.39829C590.555 8.57376 591.866 12.9054 591.345 17.2859L560.225 276.339C559.916 278.92 558.971 281.354 557.498 283.39L558.32 283.984L558.312 283.976Z" fill="#0075FF"/>
<path d="M373.65 263.796L392.117 258.059C391.104 255.556 389.571 253.787 388.228 252.612C387.475 251.953 386.785 251.485 386.288 251.184C386.04 251.033 385.842 250.925 385.709 250.856C385.642 250.822 385.593 250.798 385.561 250.783C385.546 250.775 385.535 250.77 385.529 250.767L385.524 250.765L385.523 250.765L385.523 250.765L385.019 250.54L384.943 249.99C384.784 248.851 384.392 247.462 383.998 246.265L383.998 246.264C383.681 245.299 382.684 244.793 381.78 245.069L373.65 263.796ZM373.65 263.796C373.064 261.163 373.325 258.837 373.766 257.108C374.013 256.138 374.317 255.361 374.555 254.831C374.674 254.567 374.777 254.365 374.848 254.233C374.883 254.167 374.91 254.119 374.927 254.089C374.936 254.074 374.942 254.063 374.946 254.058L374.947 254.055L374.948 254.054L374.948 254.053L374.949 254.053L374.949 254.053L374.949 254.052L375.237 253.582L374.989 253.086C374.468 252.044 374.008 250.681 373.645 249.457C373.362 248.482 373.903 247.497 374.806 247.217L374.81 247.216C376.724 246.613 379.377 245.803 381.394 245.187C381.525 245.146 381.654 245.107 381.779 245.069L373.65 263.796Z" fill="#0075FF" stroke="white" stroke-width="2"/>
<path d="M331.41 264.867C331.584 264.864 331.745 264.86 331.891 264.857C331.809 261.352 331.302 258.597 330.8 256.686C330.526 255.642 330.253 254.85 330.052 254.326C330.049 254.316 330.045 254.307 330.041 254.297C330.002 254.306 329.961 254.314 329.92 254.322C329.324 254.443 328.498 254.575 327.58 254.617C325.816 254.699 323.4 254.466 321.832 252.791L321.434 252.366L321.607 251.81L321.607 251.81L321.608 251.81L321.608 251.81L321.608 251.809L321.609 251.805L321.618 251.776C321.626 251.749 321.638 251.706 321.652 251.651C321.682 251.54 321.721 251.381 321.759 251.193C321.836 250.804 321.897 250.341 321.875 249.936C321.851 249.495 321.742 249.346 321.711 249.319C321.711 249.319 321.711 249.319 321.711 249.318C321.707 249.315 321.68 249.29 321.584 249.28C321.469 249.267 321.259 249.276 320.919 249.378C320.228 249.584 319.173 250.184 317.795 251.081C317.065 251.556 316.315 252.066 315.524 252.604C314.812 253.088 314.068 253.594 313.275 254.117C311.653 255.188 309.939 256.256 308.278 257.075C306.633 257.886 304.951 258.497 303.41 258.57C301.295 258.67 300.043 260.125 299.348 261.879C299.004 262.749 298.825 263.638 298.765 264.342C298.743 264.597 298.738 264.817 298.744 264.995C298.972 265.017 299.267 265.038 299.628 265.057C300.602 265.108 301.978 265.141 303.628 265.159C306.925 265.194 311.274 265.171 315.612 265.123C319.948 265.075 324.268 265.003 327.503 264.944C329.121 264.914 330.468 264.887 331.41 264.867ZM298.787 265.379C298.787 265.379 298.787 265.376 298.785 265.371C298.786 265.377 298.787 265.379 298.787 265.379ZM329.735 253.569C329.734 253.568 329.734 253.568 329.735 253.569L329.735 253.569Z" fill="#0075FF" stroke="white" stroke-width="2"/>
<path d="M350.518 133.448L315.154 132.967L315.485 251.622C315.537 251.687 315.682 251.832 316.024 252.008C316.914 252.464 318.948 253.029 323.393 253.029C327.473 253.029 329.543 252.471 330.554 251.993C331.011 251.778 331.239 251.585 331.341 251.479V153.318V152.137L332.506 152.332L339.907 153.57L340.513 153.671L340.697 154.258L370.235 248.79C370.362 248.858 370.633 248.969 371.133 249.043C372.287 249.214 374.547 249.167 378.75 248.063C382.063 247.192 383.832 246.263 384.747 245.607C385.108 245.348 385.333 245.133 385.469 244.983L350.518 133.448Z" fill="#0075FF" stroke="white" stroke-width="2"/>
<path d="M339.099 155.061C339.343 155.061 339.555 154.89 339.596 154.638C339.645 154.361 339.457 154.1 339.181 154.051L327.692 152.057C327.415 152.008 327.154 152.195 327.106 152.472C327.057 152.749 327.244 153.009 327.521 153.058L339.01 155.053C339.01 155.053 339.067 155.053 339.099 155.053V155.061Z" fill="white"/>
<path d="M384.337 246.905C384.386 246.905 384.443 246.905 384.5 246.881C384.769 246.791 384.907 246.506 384.826 246.238L384.752 246.018C384.663 245.749 384.378 245.611 384.109 245.692C383.84 245.782 383.702 246.067 383.783 246.335L383.857 246.555C383.93 246.767 384.125 246.905 384.337 246.905ZM383.637 244.764C383.686 244.764 383.743 244.764 383.8 244.739C384.068 244.65 384.207 244.365 384.125 244.096L383.49 242.175C383.401 241.906 383.116 241.768 382.847 241.849C382.578 241.939 382.44 242.224 382.521 242.492L383.156 244.414C383.23 244.625 383.425 244.764 383.637 244.764ZM382.367 240.913C382.416 240.913 382.473 240.913 382.53 240.888C382.798 240.799 382.937 240.514 382.855 240.245L382.22 238.323C382.131 238.055 381.846 237.908 381.577 237.998C381.308 238.087 381.17 238.372 381.251 238.641L381.886 240.563C381.96 240.774 382.155 240.913 382.367 240.913ZM381.097 237.061C381.145 237.061 381.202 237.061 381.259 237.037C381.528 236.947 381.666 236.662 381.585 236.394L380.95 234.472C380.86 234.203 380.575 234.065 380.307 234.146C380.038 234.236 379.9 234.521 379.981 234.79L380.616 236.711C380.689 236.923 380.885 237.061 381.097 237.061ZM379.826 233.21C379.875 233.21 379.932 233.21 379.981 233.186C380.25 233.096 380.388 232.811 380.307 232.542L379.672 230.613C379.582 230.344 379.297 230.206 379.028 230.287C378.76 230.377 378.621 230.662 378.703 230.93L379.338 232.86C379.411 233.072 379.606 233.21 379.818 233.21H379.826ZM378.556 229.359C378.605 229.359 378.662 229.359 378.719 229.334C378.988 229.245 379.126 228.96 379.045 228.691L378.41 226.77C378.32 226.501 378.035 226.362 377.766 226.444C377.498 226.533 377.359 226.818 377.441 227.087L378.076 229.009C378.149 229.22 378.344 229.359 378.556 229.359ZM377.286 225.508C377.335 225.508 377.392 225.508 377.441 225.483C377.709 225.394 377.848 225.109 377.766 224.84L377.131 222.91C377.042 222.641 376.757 222.503 376.488 222.584C376.219 222.674 376.081 222.959 376.162 223.228L376.797 225.157C376.871 225.369 377.066 225.508 377.278 225.508H377.286ZM376.016 221.656C376.065 221.656 376.122 221.656 376.179 221.632C376.447 221.542 376.586 221.257 376.504 220.989L375.869 219.067C375.78 218.798 375.495 218.66 375.226 218.741C374.957 218.831 374.819 219.116 374.9 219.385L375.535 221.306C375.609 221.518 375.804 221.656 376.016 221.656ZM374.746 217.805C374.794 217.805 374.851 217.805 374.908 217.781C375.177 217.691 375.316 217.406 375.234 217.137L374.599 215.216C374.509 214.947 374.224 214.809 373.956 214.89C373.687 214.98 373.549 215.265 373.63 215.533L374.265 217.455C374.338 217.667 374.534 217.805 374.746 217.805ZM373.484 213.954C373.532 213.954 373.589 213.954 373.646 213.929C373.915 213.84 374.054 213.555 373.972 213.286L373.337 211.365C373.247 211.096 372.962 210.957 372.694 211.039C372.425 211.128 372.287 211.413 372.368 211.682L373.003 213.604C373.076 213.815 373.272 213.954 373.484 213.954ZM372.213 210.102C372.262 210.102 372.319 210.102 372.376 210.078C372.645 209.988 372.783 209.704 372.702 209.435L372.067 207.513C371.977 207.245 371.692 207.106 371.424 207.188C371.155 207.277 371.016 207.562 371.098 207.831L371.733 209.752C371.806 209.964 372.002 210.102 372.213 210.102ZM370.943 206.251C370.992 206.251 371.049 206.251 371.098 206.227C371.367 206.137 371.505 205.852 371.424 205.584L370.788 203.654C370.699 203.385 370.414 203.239 370.145 203.328C369.877 203.418 369.738 203.703 369.82 203.971L370.455 205.901C370.528 206.113 370.723 206.251 370.935 206.251H370.943ZM369.673 202.4C369.722 202.4 369.779 202.4 369.836 202.376C370.105 202.286 370.243 202.001 370.162 201.732L369.526 199.811C369.437 199.542 369.152 199.404 368.883 199.485C368.614 199.575 368.476 199.86 368.558 200.128L369.193 202.05C369.266 202.262 369.461 202.4 369.673 202.4ZM368.403 198.549C368.452 198.549 368.509 198.549 368.566 198.524C368.834 198.435 368.973 198.15 368.891 197.881L368.256 195.959C368.167 195.691 367.882 195.552 367.613 195.634C367.344 195.723 367.206 196.008 367.287 196.277L367.922 198.199C367.996 198.41 368.191 198.549 368.403 198.549ZM367.133 194.697C367.181 194.697 367.238 194.697 367.295 194.673C367.564 194.583 367.703 194.298 367.621 194.03L366.986 192.108C366.897 191.839 366.612 191.693 366.343 191.782C366.074 191.872 365.936 192.157 366.017 192.426L366.652 194.347C366.726 194.559 366.921 194.697 367.133 194.697ZM365.862 190.846C365.911 190.846 365.968 190.846 366.025 190.822C366.294 190.732 366.432 190.447 366.351 190.178L365.716 188.257C365.626 187.988 365.341 187.85 365.073 187.931C364.804 188.021 364.666 188.306 364.747 188.574L365.382 190.496C365.455 190.708 365.651 190.846 365.862 190.846ZM364.6 186.995C364.649 186.995 364.706 186.995 364.763 186.97C365.032 186.881 365.17 186.596 365.089 186.327L364.454 184.406C364.364 184.137 364.079 183.999 363.811 184.08C363.542 184.17 363.403 184.454 363.485 184.723L364.12 186.645C364.193 186.856 364.389 186.995 364.6 186.995ZM363.33 183.144C363.379 183.144 363.436 183.144 363.493 183.119C363.762 183.03 363.9 182.745 363.819 182.476L363.184 180.554C363.094 180.286 362.809 180.147 362.54 180.229C362.272 180.318 362.133 180.603 362.215 180.872L362.85 182.793C362.923 183.005 363.118 183.144 363.33 183.144ZM362.06 179.292C362.109 179.292 362.166 179.292 362.215 179.268C362.483 179.178 362.622 178.893 362.54 178.625L361.905 176.695C361.816 176.426 361.531 176.28 361.262 176.369C360.993 176.459 360.855 176.744 360.936 177.012L361.571 178.942C361.645 179.154 361.84 179.292 362.052 179.292H362.06ZM360.79 175.441C360.839 175.441 360.896 175.441 360.953 175.417C361.221 175.327 361.36 175.042 361.278 174.773L360.643 172.852C360.554 172.583 360.269 172.445 360 172.526C359.731 172.616 359.593 172.901 359.674 173.169L360.309 175.091C360.383 175.303 360.578 175.441 360.79 175.441ZM359.52 171.59C359.568 171.59 359.626 171.59 359.682 171.565C359.951 171.476 360.09 171.191 360.008 170.922L359.373 169.001C359.284 168.732 358.999 168.593 358.73 168.675C358.461 168.764 358.323 169.049 358.404 169.318L359.039 171.24C359.113 171.451 359.308 171.59 359.52 171.59ZM358.249 167.739C358.298 167.739 358.355 167.739 358.412 167.714C358.681 167.625 358.819 167.34 358.738 167.071L358.103 165.149C358.013 164.881 357.728 164.742 357.46 164.824C357.191 164.913 357.053 165.198 357.134 165.467L357.769 167.388C357.842 167.6 358.038 167.739 358.249 167.739ZM356.979 163.887C357.028 163.887 357.085 163.887 357.142 163.863C357.411 163.773 357.549 163.488 357.468 163.22L356.833 161.298C356.743 161.029 356.458 160.891 356.189 160.972C355.921 161.062 355.782 161.347 355.864 161.616L356.499 163.537C356.572 163.749 356.768 163.887 356.979 163.887ZM355.709 160.036C355.758 160.036 355.815 160.036 355.864 160.012C356.132 159.922 356.271 159.637 356.189 159.368L355.554 157.439C355.465 157.17 355.18 157.023 354.911 157.113C354.642 157.202 354.504 157.487 354.585 157.756L355.221 159.686C355.294 159.898 355.489 160.036 355.701 160.036H355.709ZM354.447 156.185C354.496 156.185 354.553 156.185 354.61 156.16C354.879 156.071 355.017 155.786 354.936 155.517L354.3 153.595C354.211 153.327 353.926 153.188 353.657 153.27C353.389 153.359 353.25 153.644 353.332 153.913L353.967 155.835C354.04 156.046 354.235 156.185 354.447 156.185ZM353.177 152.333C353.226 152.333 353.283 152.333 353.34 152.309C353.608 152.219 353.747 151.934 353.665 151.666L353.03 149.744C352.941 149.476 352.656 149.337 352.387 149.419C352.118 149.508 351.98 149.793 352.061 150.062L352.696 151.983C352.77 152.195 352.965 152.333 353.177 152.333ZM351.907 148.482C351.956 148.482 352.013 148.482 352.07 148.458C352.338 148.368 352.477 148.083 352.395 147.815L351.76 145.893C351.671 145.624 351.386 145.478 351.117 145.567C350.848 145.657 350.71 145.942 350.791 146.211L351.426 148.132C351.5 148.344 351.695 148.482 351.907 148.482ZM350.636 144.631C350.685 144.631 350.742 144.623 350.799 144.606C351.068 144.517 351.206 144.232 351.125 143.963L350.49 142.042C350.4 141.773 350.115 141.635 349.847 141.716C349.578 141.806 349.44 142.091 349.521 142.359L350.156 144.281C350.229 144.492 350.425 144.631 350.636 144.631ZM349.366 140.78C349.415 140.78 349.472 140.771 349.529 140.755C349.798 140.666 349.936 140.381 349.855 140.112L349.22 138.19C349.13 137.922 348.845 137.783 348.577 137.865C348.308 137.954 348.169 138.239 348.251 138.508L348.886 140.43C348.959 140.641 349.155 140.78 349.366 140.78ZM348.096 136.928C348.145 136.928 348.202 136.92 348.259 136.904C348.528 136.814 348.666 136.529 348.585 136.261L347.95 134.339C347.86 134.07 347.575 133.932 347.306 134.013C347.038 134.103 346.899 134.388 346.981 134.657L347.616 136.578C347.689 136.79 347.884 136.928 348.096 136.928Z" fill="white"/>
<path d="M328.938 252.93C329.214 252.93 329.442 252.702 329.442 252.426L329.459 250.374C329.459 250.097 329.239 249.869 328.954 249.861C328.677 249.861 328.449 250.089 328.449 250.366L328.433 252.417C328.433 252.694 328.653 252.922 328.938 252.93ZM328.97 248.835C329.247 248.835 329.475 248.607 329.475 248.33L329.491 246.295C329.491 246.018 329.271 245.79 328.986 245.782C328.71 245.782 328.482 246.01 328.482 246.286L328.465 248.322C328.465 248.599 328.685 248.827 328.97 248.835ZM328.995 244.764C329.271 244.764 329.499 244.536 329.499 244.259L329.516 242.223C329.516 241.947 329.296 241.719 329.011 241.71C328.734 241.71 328.506 241.938 328.506 242.215L328.49 244.251C328.49 244.528 328.71 244.756 328.995 244.764ZM329.027 240.693C329.304 240.693 329.532 240.465 329.532 240.188L329.548 238.152C329.548 237.875 329.328 237.647 329.043 237.639C328.767 237.639 328.539 237.867 328.539 238.144L328.522 240.18C328.522 240.457 328.742 240.685 329.027 240.693ZM329.06 236.63C329.336 236.63 329.564 236.402 329.564 236.125L329.581 234.089C329.581 233.813 329.361 233.585 329.076 233.576C328.799 233.576 328.571 233.804 328.571 234.081L328.555 236.109C328.555 236.385 328.775 236.613 329.06 236.622V236.63ZM329.084 232.567C329.361 232.567 329.589 232.339 329.589 232.062L329.605 230.035C329.605 229.758 329.385 229.53 329.1 229.522C328.824 229.522 328.596 229.75 328.596 230.026L328.579 232.054C328.579 232.331 328.799 232.559 329.084 232.567ZM329.117 228.504C329.393 228.504 329.621 228.276 329.621 227.999L329.638 225.963C329.638 225.687 329.418 225.459 329.133 225.45C328.864 225.467 328.628 225.67 328.62 225.955L328.604 227.983C328.604 228.26 328.824 228.488 329.108 228.496L329.117 228.504ZM329.149 224.441C329.426 224.441 329.654 224.213 329.654 223.936L329.67 221.909C329.67 221.632 329.45 221.404 329.165 221.396C328.889 221.396 328.661 221.624 328.661 221.9L328.644 223.928C328.644 224.205 328.864 224.433 329.149 224.441ZM329.174 220.386C329.45 220.386 329.678 220.158 329.678 219.881L329.695 217.854C329.695 217.577 329.475 217.349 329.19 217.341C328.913 217.341 328.685 217.569 328.685 217.846L328.669 219.873C328.669 220.15 328.889 220.378 329.174 220.386ZM329.206 216.323C329.483 216.323 329.711 216.095 329.711 215.818L329.727 213.791C329.727 213.514 329.507 213.286 329.222 213.278C328.946 213.278 328.718 213.506 328.718 213.783L328.701 215.81C328.701 216.087 328.921 216.315 329.206 216.323ZM329.231 212.26C329.507 212.26 329.735 212.032 329.735 211.755L329.752 209.728C329.752 209.451 329.532 209.223 329.247 209.215C328.97 209.215 328.742 209.443 328.742 209.72L328.726 211.747C328.726 212.024 328.946 212.252 329.231 212.26ZM329.263 208.197C329.54 208.197 329.768 207.969 329.768 207.692L329.784 205.665C329.784 205.388 329.564 205.16 329.279 205.152C329.003 205.152 328.775 205.38 328.775 205.657L328.758 207.684C328.758 207.961 328.978 208.189 329.263 208.197ZM329.296 204.142C329.573 204.142 329.801 203.914 329.801 203.637L329.817 201.61C329.817 201.333 329.597 201.105 329.312 201.097C329.035 201.097 328.807 201.325 328.807 201.602L328.791 203.629C328.791 203.906 329.011 204.134 329.296 204.142ZM329.32 200.079C329.597 200.079 329.825 199.851 329.825 199.574L329.841 197.547C329.841 197.27 329.621 197.042 329.336 197.034C329.06 197.034 328.832 197.262 328.832 197.539L328.815 199.566C328.815 199.843 329.035 200.071 329.32 200.079ZM329.353 196.024C329.63 196.024 329.858 195.797 329.858 195.52L329.874 193.492C329.874 193.215 329.654 192.987 329.369 192.979C329.092 192.979 328.864 193.207 328.864 193.484L328.848 195.512C328.848 195.788 329.068 196.016 329.353 196.024ZM329.385 191.962C329.662 191.962 329.89 191.734 329.89 191.457L329.906 189.429C329.906 189.152 329.687 188.924 329.402 188.916C329.125 188.916 328.897 189.144 328.897 189.421L328.881 191.449C328.881 191.725 329.1 191.953 329.385 191.962ZM329.41 187.907C329.687 187.907 329.915 187.679 329.915 187.402L329.931 185.374C329.931 185.098 329.711 184.87 329.426 184.861C329.149 184.861 328.921 185.089 328.921 185.366L328.905 187.394C328.905 187.671 329.125 187.899 329.41 187.907ZM329.442 183.844C329.719 183.844 329.947 183.616 329.947 183.339L329.963 181.311C329.963 181.035 329.744 180.807 329.459 180.799C329.182 180.799 328.954 181.027 328.954 181.303L328.938 183.331C328.938 183.608 329.157 183.836 329.442 183.844ZM329.475 179.781C329.752 179.781 329.98 179.553 329.98 179.276L329.996 177.249C329.996 176.972 329.776 176.744 329.491 176.736C329.214 176.736 328.986 176.964 328.986 177.24L328.97 179.276C328.97 179.553 329.19 179.781 329.475 179.789V179.781ZM329.499 175.718C329.776 175.718 330.004 175.49 330.004 175.213L330.02 173.186C330.02 172.909 329.801 172.681 329.516 172.673C329.239 172.673 329.011 172.901 329.011 173.177L328.995 175.213C328.995 175.49 329.214 175.718 329.499 175.726V175.718ZM329.532 171.655C329.809 171.655 330.037 171.427 330.037 171.15L330.053 169.114C330.053 168.838 329.833 168.61 329.548 168.602C329.271 168.602 329.043 168.829 329.043 169.106L329.027 171.142C329.027 171.419 329.247 171.647 329.532 171.655ZM329.556 167.592C329.833 167.592 330.061 167.364 330.061 167.087L330.077 165.051C330.077 164.775 329.858 164.547 329.573 164.539C329.296 164.539 329.068 164.767 329.068 165.043L329.052 167.079C329.052 167.356 329.271 167.584 329.556 167.592ZM329.589 163.521C329.866 163.521 330.094 163.293 330.094 163.016L330.11 160.98C330.11 160.704 329.89 160.476 329.605 160.467C329.328 160.467 329.1 160.695 329.1 160.972L329.084 163.008C329.084 163.285 329.304 163.513 329.589 163.521ZM329.621 159.458C329.898 159.458 330.126 159.23 330.126 158.953L330.143 156.917C330.143 156.641 329.923 156.413 329.638 156.404C329.361 156.404 329.133 156.632 329.133 156.909L329.117 158.945C329.117 159.222 329.336 159.45 329.621 159.458ZM329.646 155.37C329.923 155.37 330.151 155.142 330.151 154.866V153.978C330.159 153.253 330.167 152.854 330.167 152.806C330.167 152.529 329.939 152.301 329.662 152.301C329.385 152.301 329.157 152.529 329.157 152.806C329.157 152.854 329.157 153.253 329.157 153.97V154.857C329.157 155.134 329.377 155.362 329.654 155.37H329.646Z" fill="white"/>
<path d="M168.866 250.498C168.873 250.47 168.879 250.442 168.884 250.413L168.203 250.354C168.831 250.602 168.832 250.599 168.833 250.596L168.836 250.59L168.841 250.577C168.844 250.569 168.847 250.56 168.85 250.551C168.855 250.534 168.861 250.516 168.866 250.498ZM180.687 252.274C181.043 252.224 181.298 252.159 181.471 252.102L198.1 155.258L198.216 154.583L198.887 154.447L208.226 152.558L208.236 152.556L208.245 152.555L209.271 152.367L210.451 152.152V153.351V251.235C210.526 251.281 210.644 251.343 210.823 251.412C211.66 251.738 213.541 252.134 217.576 252.134C220.664 252.134 222.131 251.743 222.788 251.437C222.952 251.361 223.058 251.294 223.123 251.245V134.41L189.219 132.116L168.963 249.968C168.997 249.989 169.036 250.011 169.081 250.036C169.745 250.399 171.316 251.005 174.863 251.774C177.871 252.425 179.678 252.414 180.687 252.274Z" fill="#0075FF" stroke="white" stroke-width="2"/>
<path d="M171.89 246.27L172.403 243.274L171.402 243.103L170.889 246.099L171.89 246.27ZM172.908 240.269L173.421 237.273L172.42 237.102L171.907 240.098L172.908 240.269ZM173.934 234.277L174.447 231.28L173.446 231.109L172.933 234.106L173.934 234.277ZM174.952 228.284L175.465 225.288L174.463 225.117L173.95 228.113L174.952 228.284ZM175.978 222.283L176.491 219.287L175.489 219.116L174.976 222.112L175.978 222.283ZM176.996 216.291L177.509 213.294L176.507 213.123L175.994 216.12L176.996 216.291ZM178.022 210.29L178.535 207.293L177.533 207.122L177.02 210.119L178.022 210.29ZM179.039 204.297L179.552 201.301L178.551 201.13L178.038 204.126L179.039 204.297ZM180.065 198.304L180.578 195.308L179.577 195.137L179.064 198.133L180.065 198.304ZM181.083 192.304L181.596 189.307L180.595 189.136L180.082 192.133L181.083 192.304ZM182.101 186.311L182.614 183.315L181.612 183.144L181.099 186.14L182.101 186.311ZM183.127 180.318L183.64 177.322L182.638 177.151L182.125 180.147L183.127 180.318ZM184.145 174.317L184.657 171.321L183.656 171.15L183.143 174.146L184.145 174.317ZM185.17 168.325L185.683 165.328L184.682 165.157L184.169 168.154L185.17 168.325ZM186.188 162.324L186.701 159.328L185.7 159.157L185.187 162.153L186.188 162.324ZM187.214 156.331L187.727 153.335L186.726 153.164L186.213 156.16L187.214 156.331ZM188.232 150.339L188.745 147.342L187.743 147.171L187.23 150.168L188.232 150.339ZM189.258 144.338L189.771 141.341L188.769 141.17L188.256 144.167L189.258 144.338ZM190.276 138.345L190.789 135.349L189.787 135.178L189.274 138.174L190.276 138.345Z" fill="#0075FF"/>
<path d="M213.855 151.786L214.079 152.779L208.558 154.024L208.335 153.031L213.855 151.786Z" fill="#0075FF"/>
<path d="M211.405 251.49H212.414V250.374H211.405V251.49ZM211.38 247.337H212.39L212.374 244.292H211.364L211.38 247.337ZM211.348 241.255H212.365L212.349 238.21H211.34L211.356 241.255H211.348ZM211.315 235.173H212.325L212.308 232.127H211.299L211.315 235.173ZM211.283 229.09H212.292L212.276 226.045H211.266L211.283 229.09ZM211.25 223.008H212.26L212.243 219.963H211.234L211.25 223.008ZM211.226 216.926H212.235L212.219 213.881H211.209L211.226 216.926ZM211.193 210.844H212.203L212.186 207.798H211.177L211.193 210.844ZM211.16 204.761H212.17L212.154 201.716H211.144L211.16 204.761ZM211.128 198.679H212.137L212.121 195.634H211.112L211.128 198.679ZM211.095 192.597H212.105L212.089 189.552H211.079L211.095 192.597ZM211.063 186.515H212.072L212.056 183.469H211.046L211.063 186.515ZM211.03 180.432H212.04L212.023 177.387H211.014L211.03 180.432ZM211.006 174.35H212.015L211.999 171.305H210.989L211.006 174.35ZM210.973 168.276H211.983L211.966 165.231H210.957L210.973 168.276ZM210.941 162.194H211.95L211.934 159.149H210.916L210.932 162.194H210.941ZM210.908 156.112H211.918L211.901 153.066H210.892L210.908 156.112Z" fill="#0075FF"/>
<path d="M205.991 134.316L207.007 134.363L206.117 153.607L205.1 153.56L205.991 134.316Z" fill="#0075FF"/>
<path d="M205.461 147.489L207.171 147.383C209.703 147.228 211.73 145.193 211.885 142.661L212.349 135.072L211.339 135.007L210.875 142.595C210.753 144.623 209.133 146.243 207.106 146.365L205.396 146.471L205.461 147.481V147.489Z" fill="#0075FF"/>
<path d="M188.704 146.78C197.424 146.78 198.613 135.919 198.621 135.805L197.612 135.707C197.612 135.707 197.335 138.337 196.048 140.877C194.371 144.191 191.839 145.836 188.501 145.763L188.476 146.78C188.549 146.78 188.623 146.78 188.696 146.78H188.704Z" fill="#0075FF"/>
<path d="M313.06 134.884L317.823 99.0176L318.027 97.5276L306.261 123.819L259.061 122.703L261.626 109.318L297.614 110.172L315.014 71.3666C317.009 66.9129 321.447 64.0712 326.324 64.1038L348.601 64.2748C356.002 64.3318 361.677 70.87 360.684 78.2061L354.642 132.067L368.663 177.924C368.663 177.924 362.011 187.662 338.016 187.662C314.021 187.662 312.116 185.765 312.116 185.765L313.068 134.876L313.06 134.884Z" fill="#0075FF"/>
<path d="M210.363 253.61C210.265 253.592 210.171 253.574 210.084 253.557C210.072 253.585 210.059 253.615 210.046 253.645C209.822 254.167 209.519 254.956 209.213 255.997C208.654 257.9 208.088 260.645 207.996 264.138C208.193 264.142 208.417 264.146 208.667 264.15C209.721 264.17 211.228 264.197 213.038 264.227C216.659 264.286 221.493 264.358 226.345 264.406C231.2 264.454 236.067 264.478 239.759 264.442C241.606 264.424 243.148 264.391 244.244 264.34C244.699 264.318 245.065 264.294 245.338 264.268C245.344 264.097 245.338 263.884 245.314 263.636C245.248 262.942 245.05 262.063 244.667 261.199C243.908 259.486 242.498 257.959 240.007 257.854C238.328 257.783 236.477 257.185 234.641 256.376C232.793 255.562 230.881 254.497 229.067 253.427C228.19 252.909 227.36 252.405 226.565 251.923C225.673 251.381 224.826 250.867 224.008 250.391C222.469 249.497 221.268 248.884 220.462 248.669C219.645 248.451 219.411 248.618 219.385 248.638C219.338 248.675 219.228 248.813 219.203 249.226C219.179 249.616 219.244 250.068 219.331 250.453C219.372 250.639 219.416 250.796 219.448 250.905C219.465 250.96 219.478 251.001 219.487 251.028L219.496 251.056L219.497 251.06L219.497 251.06L219.497 251.061L219.498 251.061C219.498 251.062 219.498 251.062 219.498 251.061L219.711 251.669L219.244 252.115C217.526 253.753 214.894 253.982 212.947 253.901C211.935 253.859 211.022 253.728 210.363 253.61ZM245.295 264.631C245.295 264.631 245.296 264.629 245.297 264.624C245.295 264.629 245.295 264.631 245.295 264.631ZM210.399 252.893C210.399 252.892 210.399 252.892 210.399 252.892L210.399 252.893Z" fill="#0075FF" stroke="white" stroke-width="2"/>
<mask id="path-82-inside-1_235_14" fill="white">
<path d="M180 254.811C179.723 255.772 179.341 256.879 178.86 257.734C178.86 257.734 182.199 261.927 180.717 266.967L160.247 260.608C161.892 255.617 167.013 254.054 167.013 254.054C167.103 253.085 167.412 251.961 167.73 251.017C168.104 249.885 169.562 249.339 171.003 249.779C173.055 250.406 175.937 251.293 177.981 251.928C179.422 252.376 180.318 253.663 179.992 254.811H180Z"/>
</mask>
<path d="M180 254.811C179.723 255.772 179.341 256.879 178.86 257.734C178.86 257.734 182.199 261.927 180.717 266.967L160.247 260.608C161.892 255.617 167.013 254.054 167.013 254.054C167.103 253.085 167.412 251.961 167.73 251.017C168.104 249.885 169.562 249.339 171.003 249.779C173.055 250.406 175.937 251.293 177.981 251.928C179.422 252.376 180.318 253.663 179.992 254.811H180Z" fill="#0075FF"/>
<path d="M180 254.811V252.811H182.658L181.922 255.365L180 254.811ZM178.86 257.734L177.296 258.98L176.458 257.927L177.117 256.754L178.86 257.734ZM180.717 266.967L182.635 267.531L182.063 269.48L180.123 268.877L180.717 266.967ZM160.247 260.608L159.654 262.518L157.711 261.914L158.348 259.982L160.247 260.608ZM167.013 254.054L169.005 254.238L168.881 255.574L167.597 255.966L167.013 254.054ZM167.73 251.017L169.629 251.645L169.626 251.654L167.73 251.017ZM171.003 249.779L171.587 247.866L171.587 247.866L171.003 249.779ZM177.981 251.928L177.387 253.838L177.387 253.838L177.981 251.928ZM179.992 254.811V256.811H177.346L178.068 254.265L179.992 254.811ZM181.922 255.365C181.632 256.37 181.199 257.654 180.604 258.714L177.117 256.754C177.482 256.103 177.814 255.173 178.078 254.257L181.922 255.365ZM178.86 257.734C180.425 256.488 180.425 256.489 180.426 256.489C180.426 256.49 180.427 256.49 180.427 256.491C180.428 256.492 180.429 256.493 180.429 256.494C180.431 256.496 180.433 256.498 180.435 256.501C180.439 256.507 180.444 256.513 180.45 256.521C180.462 256.535 180.477 256.555 180.494 256.578C180.529 256.624 180.576 256.687 180.632 256.766C180.743 256.923 180.893 257.144 181.063 257.421C181.402 257.974 181.832 258.764 182.209 259.739C182.96 261.678 183.54 264.456 182.635 267.531L178.798 266.403C179.376 264.438 179.027 262.6 178.479 261.182C178.207 260.478 177.895 259.906 177.654 259.514C177.535 259.32 177.435 259.174 177.37 259.082C177.337 259.036 177.314 259.004 177.301 258.986C177.294 258.978 177.29 258.973 177.289 258.972C177.289 258.971 177.289 258.971 177.29 258.973C177.291 258.973 177.291 258.974 177.292 258.975C177.293 258.976 177.293 258.977 177.294 258.977C177.294 258.978 177.294 258.978 177.295 258.978C177.295 258.979 177.296 258.98 178.86 257.734ZM180.123 268.877L159.654 262.518L160.84 258.698L181.31 265.057L180.123 268.877ZM158.348 259.982C159.35 256.939 161.402 254.98 163.119 253.807C163.982 253.218 164.784 252.811 165.376 252.548C165.673 252.416 165.921 252.319 166.102 252.253C166.192 252.219 166.266 252.194 166.322 252.175C166.349 252.166 166.372 252.159 166.39 252.153C166.399 252.15 166.407 252.148 166.414 252.146C166.417 252.145 166.42 252.144 166.422 252.143C166.424 252.142 166.425 252.142 166.426 252.142C166.427 252.141 166.428 252.141 166.428 252.141C166.429 252.141 166.429 252.141 167.013 254.054C167.597 255.966 167.598 255.966 167.599 255.966C167.599 255.966 167.6 255.966 167.6 255.966C167.601 255.965 167.602 255.965 167.602 255.965C167.604 255.964 167.605 255.964 167.606 255.964C167.607 255.963 167.608 255.963 167.607 255.963C167.605 255.964 167.6 255.966 167.589 255.969C167.569 255.976 167.531 255.989 167.478 256.008C167.372 256.047 167.207 256.111 166.999 256.204C166.579 256.39 165.998 256.685 165.375 257.111C164.12 257.968 162.789 259.286 162.147 261.234L158.348 259.982ZM165.022 253.869C165.133 252.67 165.5 251.373 165.834 250.379L169.626 251.654C169.325 252.549 169.073 253.5 169.005 254.238L165.022 253.869ZM165.831 250.388C166.675 247.837 169.548 247.244 171.587 247.866L170.419 251.692C170.089 251.591 169.819 251.624 169.672 251.68C169.528 251.734 169.59 251.761 169.629 251.645L165.831 250.388ZM171.587 247.866C173.642 248.494 176.527 249.382 178.574 250.019L177.387 253.838C175.347 253.204 172.468 252.318 170.419 251.692L171.587 247.866ZM178.574 250.019C180.63 250.657 182.645 252.786 181.916 255.357L178.068 254.265C178.036 254.379 178.1 254.383 178.008 254.251C177.916 254.118 177.712 253.939 177.387 253.838L178.574 250.019ZM179.992 252.811H180V256.811H179.992V252.811Z" fill="white" mask="url(#path-82-inside-1_235_14)"/>
<path d="M266.023 109.423C266.023 109.423 257.587 107.412 250.837 108.169C250.837 108.169 250.219 110.083 253.687 111.019C253.687 111.019 240.692 111.076 240.399 111.687C240.106 112.306 240.863 113.413 240.863 113.413C240.863 113.413 239.056 113.991 239.3 114.993C239.544 115.994 238.893 115.782 241.588 116.605C241.588 116.605 241.042 117.785 241.93 118.722C242.467 119.292 245.187 119.862 246.172 120.082C246.172 120.082 245.219 122.695 247.784 122.931C250.349 123.167 266.812 122.793 266.812 122.793C266.812 122.793 270.069 114.048 266.031 109.423H266.023Z" fill="white"/>
<path d="M326.959 187.589C326.959 187.589 326.983 187.589 327 187.589C327.277 187.564 327.488 187.328 327.464 187.043L324.394 146.071C323.832 138.524 324.052 130.903 325.054 123.404L328.531 97.3322C328.571 97.0553 328.376 96.8029 328.099 96.7622C327.822 96.7215 327.57 96.9169 327.529 97.1937L324.052 123.265C323.043 130.829 322.823 138.524 323.393 146.145L326.462 187.116C326.479 187.385 326.707 187.589 326.967 187.589H326.959Z" fill="white"/>
<path d="M341.55 44.5957L341.615 65.0652C341.615 68.3466 338.993 71.0009 335.769 71.0009C332.545 71.0009 329.923 68.3466 329.923 65.0652L331.071 45.4832L341.558 44.5957H341.55Z" fill="white"/>
<path d="M348.023 70.4229L329.784 111.321L293.796 110.466L291.231 123.852L330.965 124.788C335.484 124.894 339.628 122.272 341.468 118.144L357.81 81.4474" fill="#0075FF"/>
<path d="M331.242 125.635C335.875 125.635 340.052 122.931 341.941 118.681L358.282 81.9842C358.396 81.7318 358.282 81.4305 358.03 81.3165C357.769 81.2026 357.476 81.3165 357.362 81.5771L341.021 118.274C339.262 122.231 335.329 124.723 330.989 124.617L291.85 123.697L294.219 111.321L329.776 112.167C329.988 112.176 330.167 112.053 330.249 111.866L348.487 70.9678C348.601 70.7154 348.487 70.4141 348.235 70.3001C347.982 70.1861 347.681 70.3001 347.567 70.5525L329.467 111.141L293.812 110.295C293.552 110.295 293.348 110.466 293.299 110.702L290.734 124.088C290.71 124.234 290.742 124.389 290.84 124.503C290.93 124.617 291.076 124.69 291.223 124.69L330.957 125.626C331.046 125.626 331.144 125.626 331.234 125.626L331.242 125.635Z" fill="white"/>
<path d="M296.768 110.848C296.768 110.848 291.679 103.561 281.68 101.184C281.68 101.184 277.78 101.526 280.158 104.066C282.535 106.606 285.418 111.524 285.418 111.524C285.418 111.524 283.211 121.865 275.924 125.936C275.924 125.936 281.688 130.007 287.453 127.125C293.218 124.242 294.911 123.738 294.911 123.738C294.911 123.738 293.047 114.586 296.776 110.848H296.768Z" fill="white"/>
<path d="M277.577 124.072L278.798 123.909C283.024 120.97 284.489 115.148 284.489 115.148C287.746 116.027 292.184 116.662 288.74 112.469C283.553 106.159 276.787 108.919 276.787 108.919L255.796 109.636L246.408 99.8975L237.973 113.324L243.949 120.188C246.775 123.437 250.927 125.22 255.234 125.041L277.568 124.096L277.577 124.072Z" fill="white"/>
<path d="M254.632 125.529C254.843 125.529 255.055 125.529 255.267 125.513L277.601 124.569C277.601 124.569 277.633 124.569 277.65 124.569L278.871 124.406C278.952 124.398 279.026 124.365 279.091 124.316C282.747 121.776 284.383 117.257 284.847 115.751C289.407 116.907 290.075 115.881 290.295 115.531C290.938 114.529 289.944 113.112 289.138 112.127C286.346 108.724 283.089 107.893 280.85 107.796C278.7 107.706 277.088 108.243 276.689 108.39L256.008 109.09L246.783 99.5149C246.677 99.401 246.522 99.3521 246.367 99.3602C246.213 99.3765 246.074 99.4661 245.993 99.5964L237.557 113.023C237.435 113.21 237.46 113.454 237.606 113.625L243.583 120.489C246.392 123.714 250.39 125.529 254.64 125.529H254.632ZM277.536 123.559L255.218 124.503C251.049 124.683 247.084 122.973 244.34 119.83L238.608 113.251L246.498 100.696L255.43 109.97C255.527 110.075 255.666 110.132 255.812 110.124L276.803 109.408C276.86 109.408 276.925 109.391 276.974 109.367C277.234 109.261 283.471 106.835 288.349 112.77C289.391 114.033 289.586 114.749 289.44 114.977C289.244 115.286 288.007 115.555 284.619 114.643C284.489 114.611 284.351 114.627 284.229 114.692C284.115 114.757 284.025 114.871 283.993 115.001C283.976 115.058 282.543 120.587 278.602 123.404L277.528 123.551L277.536 123.559Z" fill="#0075FF"/>
<path d="M281.021 114.553C281.021 114.553 282.454 114.919 284.131 115.188Z" fill="#F8F1D4"/>
<path d="M284.131 115.693C284.375 115.693 284.587 115.514 284.628 115.27C284.668 114.993 284.481 114.732 284.204 114.692C282.568 114.431 281.151 114.065 281.143 114.065C280.874 113.999 280.597 114.154 280.524 114.431C280.451 114.7 280.614 114.977 280.89 115.05C280.947 115.066 282.364 115.424 284.05 115.701C284.074 115.701 284.107 115.701 284.131 115.701V115.693Z" fill="#0075FF"/>
<path d="M281.314 125.733H282.332C283.02 125.733 283.577 126.291 283.577 126.979V128.722C283.577 129.41 283.02 129.967 282.332 129.967H281.314C280.626 129.967 280.068 129.41 280.068 128.722V126.979C280.068 126.291 280.626 125.733 281.314 125.733Z" fill="white"/>
<path d="M281.314 130.48H282.323C283.292 130.48 284.074 129.69 284.074 128.729V126.987C284.074 126.018 283.284 125.236 282.323 125.236H281.314C280.345 125.236 279.563 126.026 279.563 126.987V128.729C279.563 129.698 280.353 130.48 281.314 130.48ZM282.332 126.246C282.739 126.246 283.072 126.58 283.072 126.987V128.729C283.072 129.136 282.739 129.47 282.332 129.47H281.322C280.915 129.47 280.581 129.136 280.581 128.729V126.987C280.581 126.58 280.915 126.246 281.322 126.246H282.332Z" fill="#0075FF"/>
<path d="M170.97 120.309L163.96 150.843C163.96 150.843 163.96 154.287 163.724 159.873C163.488 165.458 160.158 160.703 159.327 157.137L153.505 170.677C153.505 170.677 151.25 172.574 150.297 171.272C149.345 169.969 149.581 169.611 149.581 169.611C149.581 169.611 148.628 172.583 146.731 171.866C144.834 171.149 146.137 169.13 146.137 169.13C146.137 169.13 143.051 170.677 142.57 169.602C142.09 168.528 143.287 166.989 143.287 166.989C143.287 166.989 141.268 169.48 140.201 167.583C139.134 165.686 150.42 147.504 150.42 147.504L157.544 112.933L170.97 120.301V120.309Z" fill="white"/>
<path d="M284.912 124.576H285.93C286.618 124.576 287.176 125.134 287.176 125.822V128.11C287.176 128.798 286.618 129.356 285.93 129.356H284.912C284.224 129.356 283.667 128.798 283.667 128.11V125.822C283.667 125.134 284.224 124.576 284.912 124.576Z" fill="white"/>
<path d="M284.921 129.86H285.938C286.907 129.86 287.689 129.071 287.689 128.11V125.822C287.689 124.853 286.899 124.071 285.938 124.071H284.921C283.952 124.071 283.162 124.861 283.162 125.822V128.11C283.162 129.079 283.952 129.86 284.921 129.86ZM285.93 125.081C286.337 125.081 286.671 125.415 286.671 125.822V128.11C286.671 128.517 286.337 128.851 285.93 128.851H284.912C284.505 128.851 284.172 128.517 284.172 128.11V125.822C284.172 125.415 284.505 125.081 284.912 125.081H285.93Z" fill="#0075FF"/>
<path d="M292.029 123.136H293.047C293.735 123.136 294.292 123.693 294.292 124.382V126.873C294.292 127.561 293.735 128.119 293.047 128.119H292.029C291.341 128.119 290.783 127.561 290.783 126.873V124.382C290.783 123.693 291.341 123.136 292.029 123.136Z" fill="white"/>
<path d="M292.029 128.631H293.038C294.007 128.631 294.789 127.842 294.789 126.881V124.389C294.789 123.42 293.999 122.639 293.038 122.639H292.029C291.06 122.639 290.278 123.428 290.278 124.389V126.881C290.278 127.85 291.068 128.631 292.029 128.631ZM293.047 123.648C293.454 123.648 293.788 123.982 293.788 124.389V126.881C293.788 127.288 293.454 127.622 293.047 127.622H292.037C291.63 127.622 291.296 127.288 291.296 126.881V124.389C291.296 123.982 291.63 123.648 292.037 123.648H293.047Z" fill="#0075FF"/>
<path d="M288.422 123.209H289.44C290.128 123.209 290.685 123.767 290.685 124.455V127.353C290.685 128.041 290.128 128.599 289.44 128.599H288.422C287.734 128.599 287.176 128.041 287.176 127.353V124.455C287.176 123.767 287.734 123.209 288.422 123.209Z" fill="white"/>
<path d="M288.43 129.104H289.44C290.409 129.104 291.19 128.314 291.19 127.353V124.455C291.19 123.486 290.4 122.704 289.44 122.704H288.43C287.461 122.704 286.679 123.494 286.679 124.455V127.353C286.679 128.322 287.469 129.104 288.43 129.104ZM289.44 123.714C289.847 123.714 290.181 124.048 290.181 124.455V127.353C290.181 127.76 289.847 128.094 289.44 128.094H288.43C288.023 128.094 287.689 127.76 287.689 127.353V124.455C287.689 124.048 288.023 123.714 288.43 123.714H289.44Z" fill="#0075FF"/>
<path d="M231.207 108.769L231.626 106.407L233.009 108.367C235.206 111.48 237.345 114.507 239.224 117.148C239.268 117.133 239.314 117.117 239.362 117.1C239.869 116.918 240.595 116.626 241.444 116.189C243.145 115.314 245.326 113.869 247.257 111.587C249.131 109.37 250.21 107.22 250.819 105.634C251.124 104.841 251.31 104.191 251.42 103.745C251.447 103.635 251.469 103.538 251.487 103.454L240.368 87.4652L240.368 87.4652C231.932 75.3334 218.096 68.1006 203.32 68.1006C181.98 68.1006 163.547 83.0603 159.158 103.946L159.158 103.946L156.627 115.979C156.655 116.014 156.686 116.052 156.721 116.093C156.964 116.38 157.364 116.802 157.967 117.292C159.169 118.271 161.189 119.535 164.391 120.545L164.392 120.545C167.613 121.564 170.192 121.496 171.943 121.19C172.82 121.037 173.494 120.823 173.939 120.653C174.031 120.618 174.112 120.585 174.184 120.555C175.519 114.356 176.879 108.017 178.085 102.289L180.031 102.241L188.466 134.329L188.475 134.362C188.477 134.363 188.479 134.365 188.481 134.366C188.617 134.468 188.879 134.609 189.313 134.767C190.17 135.079 191.467 135.378 193.138 135.635C196.464 136.146 201.095 136.466 206.234 136.466C211.374 136.466 216.005 136.146 219.331 135.635C221.002 135.378 222.299 135.079 223.156 134.767C223.581 134.612 223.841 134.474 223.979 134.373L224.037 134.222L224.97 134.583L224.037 134.222L224.037 134.222L224.038 134.221L224.039 134.217L224.044 134.204L224.065 134.149L224.146 133.941C224.216 133.76 224.317 133.499 224.44 133.179C224.686 132.538 225.022 131.662 225.38 130.717C226.101 128.819 226.903 126.672 227.261 125.596C229.116 119.999 230.282 114.904 230.933 110.317L230.935 110.3L230.939 110.283L231.207 108.769ZM188.415 134.309C188.415 134.309 188.418 134.312 188.423 134.318C188.419 134.312 188.416 134.309 188.415 134.309ZM224.053 134.309C224.053 134.309 224.05 134.312 224.045 134.318C224.051 134.312 224.054 134.309 224.053 134.309Z" fill="#0075FF" stroke="white" stroke-width="2"/>
<path d="M232.802 110.653C235.872 89.1496 228.194 78.4019 227.868 77.9541L227.054 78.5566C227.135 78.6625 234.805 89.4509 231.801 110.515L232.802 110.661V110.653Z" fill="#0075FF"/>
<path d="M212.553 70.1215C213.147 74.7462 209.711 78.4998 204.891 78.4998C200.071 78.4998 195.682 74.7462 195.088 70.1215L195.682 50.458L208.514 51.2885L212.553 70.1215Z" fill="white"/>
<path d="M192.157 44.0744C192.995 43.4149 194.16 43.3498 195.365 43.765C194.925 37.6339 197.319 32.4148 201.545 31.226C206.747 29.7604 212.756 34.9551 214.971 42.8205C217.186 50.6859 214.759 58.25 209.556 59.7075C205.656 60.8067 201.308 58.1686 198.442 53.4705C196.765 54.0405 194.388 53.0308 192.718 50.8976C190.772 48.4142 190.52 45.3609 192.157 44.0663V44.0744Z" fill="white"/>
<path d="M207.912 61.1888C208.571 61.1888 209.231 61.0992 209.866 60.9201C210.55 60.7247 211.209 60.4316 211.82 60.0326L211.266 59.1777C210.745 59.5196 210.175 59.772 209.589 59.9349C206.479 60.8061 202.953 59.1614 200.152 55.5381L199.346 56.1569C201.846 59.3975 204.932 61.1806 207.895 61.1806L207.912 61.1888Z" fill="white"/>
<path d="M191.839 44.1147C191.643 44.2205 190.878 43.4877 190.3 41.9977C189.828 40.7764 189.396 39.2864 189.657 37.9755C189.885 36.7948 190.585 35.7201 191.57 35.0361C190.585 34.7919 189.6 34.5476 188.615 34.3115C188.24 34.2219 187.784 34.0509 187.727 33.6682C187.654 33.2204 188.167 32.9191 188.606 32.7889C189.209 32.6097 189.852 32.4876 190.471 32.6097C191.09 32.7237 191.684 33.1227 191.904 33.7171C191.57 33.3018 191.285 32.8459 191.065 32.3655C190.984 32.1782 190.903 31.9584 190.968 31.7629C191.074 31.421 191.562 31.3314 191.88 31.5187C192.189 31.706 192.352 32.0561 192.482 32.3899C192.604 32.7074 192.71 33.0576 192.58 33.3751C196.415 29.8088 210.68 24.3047 211.755 29.4587C212.593 33.4891 205.16 35.2315 202.53 35.6224C203.157 35.8178 204.948 36.8844 204.15 37.8533C203.091 39.1398 199.9 38.863 198.011 38.0976C198.597 40.3367 198.597 42.6084 198.882 44.9045C199.134 46.9482 196.455 45.6699 196.195 45.1732C196.195 45.1732 195.495 42.1198 191.831 44.1228L191.839 44.1147Z" fill="#0075FF"/>
<path d="M200.12 44.343C200.844 43.2763 202.465 42.1853 204.647 42.6494L204.858 41.656C202.188 41.0942 200.193 42.4458 199.289 43.773L200.128 44.343H200.12Z" fill="#0075FF"/>
<path d="M208.856 41.884C209.581 40.8174 211.201 39.7345 213.383 40.1904L213.595 39.1971C210.924 38.6353 208.929 39.9869 208.026 41.314L208.864 41.884H208.856Z" fill="#0075FF"/>
<path d="M209.793 48.4625C210.737 47.6076 210.835 46.8259 210.745 46.3211C210.599 45.4418 209.825 44.7008 208.449 44.1064L208.05 45.0347C209.06 45.4662 209.662 45.9792 209.752 46.484C209.833 46.9481 209.451 47.404 209.117 47.7053L209.801 48.4544L209.793 48.4625Z" fill="#0075FF"/>
<path d="M206.739 53.4864C210.069 53.4864 212.227 51.7032 212.341 51.6055L211.69 50.832C211.559 50.946 208.376 53.5434 203.8 51.9638L203.466 52.9246C204.647 53.3317 205.746 53.4945 206.739 53.4945V53.4864Z" fill="#0075FF"/>
<path d="M180.81 92.5946L181.795 92.8145L177.216 113.333L176.231 113.113L180.81 92.5946Z" fill="#0075FF"/>
<path d="M153.989 158.725L154.915 159.146L150.045 169.839L149.118 169.417L153.989 158.725Z" fill="#0075FF"/>
<path d="M150.974 157.623L151.888 158.052L146.6 169.34L145.686 168.912L150.974 157.623Z" fill="#0075FF"/>
<path d="M148.32 156.746L149.207 157.229L143.742 167.269L142.855 166.786L148.32 156.746Z" fill="#0075FF"/>
<path d="M328.034 97.7718C328.246 97.7718 328.449 97.6333 328.514 97.4216C331.112 89.4667 341.965 80.6405 342.071 80.551C342.283 80.38 342.323 80.0624 342.152 79.8507L339.034 75.7959L344.212 74.2245C344.457 74.1512 344.611 73.9069 344.563 73.6545L342.779 63.493C342.747 63.2895 342.584 63.1266 342.38 63.0859C342.177 63.0452 341.965 63.1348 341.851 63.3057C341.469 63.9001 332.455 77.864 330.029 85.8841C329.198 88.628 327.586 96.811 327.521 97.1611C327.472 97.4216 327.635 97.6822 327.887 97.7473C327.928 97.7555 327.977 97.7636 328.018 97.7636L328.034 97.7718ZM341.053 80.0787C339.4 81.4629 332.968 87.0403 329.394 93.1388C329.923 90.6066 330.582 87.6021 331.014 86.1854C333.009 79.582 339.807 68.4761 342.014 64.9586L343.496 73.3858L338.049 75.0387C337.886 75.0875 337.764 75.2097 337.715 75.3725C337.666 75.5272 337.691 75.7063 337.796 75.8366L341.061 80.0787H341.053Z" fill="white"/>
<path d="M328.392 95.631C328.628 95.631 328.84 95.4682 328.889 95.232L331.201 84.183C331.201 84.183 331.201 84.1342 331.209 84.1098C331.738 76.3014 329.972 64.1613 329.955 64.0392C329.923 63.8356 329.768 63.6647 329.564 63.6158C329.361 63.5669 329.149 63.6565 329.035 63.8275L322.44 73.6307C322.359 73.7529 322.334 73.8994 322.367 74.046C322.407 74.1844 322.497 74.3065 322.627 74.3717L325.9 76.0083L322.123 77.5471C321.976 77.6041 321.87 77.7263 321.821 77.881C321.781 78.0357 321.813 78.1985 321.903 78.3207C321.96 78.3939 327.684 86.1453 327.863 95.1343C327.863 95.3949 328.066 95.6066 328.319 95.631C328.335 95.631 328.351 95.631 328.368 95.631H328.392ZM330.2 84.0039L328.587 91.6983C327.553 85.1683 324.248 79.9002 323.116 78.2392L327.334 76.5212C327.521 76.4479 327.643 76.2688 327.651 76.0734C327.651 75.878 327.553 75.6907 327.374 75.6011L323.613 73.7203L329.141 65.5048C329.573 68.8431 330.623 77.8158 330.208 84.0039H330.2Z" fill="white"/>
<path d="M338.904 165.67C338.904 165.67 338.977 165.67 339.01 165.662L356.116 161.917C356.247 161.884 356.361 161.811 356.434 161.689C356.507 161.575 356.532 161.437 356.499 161.306L350.441 135.642C350.376 135.381 350.116 135.21 349.855 135.259L333.815 138.288C333.685 138.313 333.562 138.386 333.489 138.5C333.416 138.614 333.383 138.744 333.408 138.883L338.399 165.255C338.423 165.394 338.505 165.508 338.619 165.581C338.7 165.638 338.798 165.662 338.896 165.662L338.904 165.67ZM355.4 161.029L339.303 164.547L334.507 139.184L349.57 136.342L355.4 161.029Z" fill="white"/>
<path d="M335.516 147.31C335.516 147.31 335.582 147.31 335.614 147.302L352.013 144.094C352.289 144.037 352.469 143.776 352.412 143.499C352.355 143.223 352.094 143.043 351.817 143.1L335.419 146.308C335.142 146.365 334.963 146.626 335.02 146.903C335.069 147.147 335.28 147.31 335.516 147.31Z" fill="white"/>
<path d="M315.739 165.132C315.861 165.132 315.983 165.084 316.081 165.002C316.187 164.904 316.244 164.774 316.252 164.628L316.431 139.143C316.431 139.004 316.382 138.874 316.285 138.784C316.187 138.687 316.057 138.638 315.926 138.638H312.002C311.725 138.638 311.497 138.866 311.497 139.143C311.497 139.419 311.725 139.647 312.002 139.647H315.413L315.242 164.066L312.051 163.765C311.766 163.732 311.521 163.944 311.497 164.221C311.473 164.497 311.676 164.75 311.953 164.774L315.698 165.132C315.698 165.132 315.731 165.132 315.747 165.132H315.739Z" fill="white"/>
<path d="M311.456 148.026H315.731C316.008 148.026 316.236 147.798 316.236 147.521C316.236 147.245 316.008 147.017 315.731 147.017H311.456C311.179 147.017 310.951 147.245 310.951 147.521C310.951 147.798 311.179 148.026 311.456 148.026Z" fill="white"/>
<path d="M316.268 104.066C316.513 104.066 316.732 103.887 316.765 103.634L319.501 85.5749C319.542 85.298 319.354 85.0375 319.077 84.9968C318.801 84.9561 318.54 85.1433 318.499 85.4202L315.764 103.48C315.723 103.756 315.91 104.017 316.187 104.058C316.211 104.058 316.236 104.058 316.26 104.058L316.268 104.066Z" fill="white"/>
<path d="M334.181 26.8857C338.554 27.708 341.534 32.3735 341.949 38.2115C343.268 37.78 344.579 37.8614 345.572 38.5698C347.64 40.0516 347.6 43.6668 345.466 46.6468C343.773 49.0162 341.281 50.262 339.294 49.9444C336.713 54.4145 332.659 57.0607 328.677 56.3117C323.034 55.2532 319.688 47.8112 321.211 39.6852C322.733 31.5593 328.539 25.8272 334.181 26.8857Z" fill="white"/>
<path d="M330.436 57.6557C333.799 57.6557 337.235 55.4899 339.677 51.7363L338.83 51.1826C336.274 55.1153 332.594 57.1671 329.214 56.5321L329.027 57.5254C329.491 57.615 329.964 57.6557 330.436 57.6557Z" fill="white"/>
<path d="M337.601 31.519C337.137 31.4294 329.271 34.6782 323.116 34.0024C323.116 34.0024 322.595 34.8736 321.96 36.3229C321.96 36.3229 319.566 29.1089 324.28 25.8764C328.994 22.644 336.428 22.9534 340.157 26.9105C340.157 26.9105 345.833 26.2835 347.257 28.3598C348.682 30.4361 346.647 39.3681 346.647 39.3681C346.647 39.3681 343.935 36.844 341.949 38.2038C341.949 38.2038 339.669 36.6079 338.838 35.2481C338.008 33.8802 337.601 31.5109 337.601 31.5109V31.519Z" fill="#0075FF"/>
<path d="M326.951 48.0725L327.684 47.3723L325.689 45.2635L328.465 38.4973L327.521 38.1064L324.508 45.4833L326.951 48.0725Z" fill="#0075FF"/>
<path d="M329.011 51.7847C329.947 51.7847 331.006 51.6707 332.203 51.3776L331.958 50.3924C327.049 51.5974 324.655 49.5212 324.63 49.5049L323.955 50.2621C324.044 50.3435 325.713 51.7928 329.011 51.7928V51.7847Z" fill="#0075FF"/>
<path d="M336.119 41.0294L336.754 40.2396C334.466 38.3913 332.064 36.9827 330.004 39.2463L330.753 39.9302C331.836 38.7496 333.058 38.546 336.119 41.0294Z" fill="#0075FF"/>
<path d="M331.51 39.8489C331.38 40.5492 331.844 41.225 332.545 41.3553C333.245 41.4855 333.921 41.0214 334.051 40.3212C334.181 39.621 333.717 38.9452 333.017 38.8149C332.317 38.6846 331.641 39.1487 331.51 39.8489Z" fill="#0075FF"/>
<path d="M327.407 39.4007L328.042 38.6109C325.754 36.7544 323.352 35.354 321.292 37.6175L322.041 38.3015C323.124 37.1208 324.345 36.9173 327.407 39.4007Z" fill="#0075FF"/>
<path d="M322.798 38.22C322.668 38.9203 323.132 39.5961 323.832 39.7263C324.533 39.8566 325.208 39.3925 325.339 38.6923C325.469 37.9921 325.005 37.3162 324.305 37.186C323.604 37.0557 322.929 37.5198 322.798 38.22Z" fill="#0075FF"/>
</g>
<defs>
<clipPath id="clip0_235_14">
<rect width="592.468" height="300" fill="white" transform="matrix(-1 0 0 1 592.469 0)"/>
</clipPath>
</defs>
</svg>
