<svg width="96" height="100" viewBox="0 0 96 100" fill="none" xmlns="http://www.w3.org/2000/svg">
<path d="M91.2 48C93.851 48 96.0249 45.8457 95.7602 43.208C95.2927 38.5484 94.1449 33.9736 92.3462 29.6312C89.934 23.8076 86.3983 18.5161 81.9411 14.0589C77.4839 9.60166 72.1924 6.06601 66.3688 3.65378C60.5452 1.24156 54.3034 -2.75533e-07 48 0C41.6965 2.75533e-07 35.4548 1.24156 29.6312 3.65378C23.8076 6.06601 18.5161 9.60166 14.0589 14.0589C9.60166 18.5161 6.06601 23.8076 3.65378 29.6312C1.85511 33.9736 0.707321 38.5484 0.2398 43.208C-0.0248576 45.8457 2.14903 48 4.8 48V48C7.45097 48 9.5691 45.8427 9.89961 43.2125C10.3266 39.8147 11.207 36.482 12.523 33.305C14.4528 28.6461 17.2813 24.4129 20.8471 20.8471C24.4129 17.2813 28.6461 14.4528 33.305 12.523C37.9639 10.5932 42.9572 9.6 48 9.6C53.0428 9.6 58.0361 10.5932 62.695 12.523C67.3539 14.4528 71.5871 17.2813 75.1529 20.8471C78.7187 24.4129 81.5472 28.6461 83.477 33.305C84.793 36.482 85.6734 39.8147 86.1004 43.2125C86.4309 45.8427 88.549 48 91.2 48V48Z" fill="#0075FF"/>
<rect width="9.6" height="48" rx="4.8" transform="matrix(1 0 0 -1 86.4 48)" fill="#0075FF"/>
<path d="M4.8 52C2.14903 52 -0.0248574 54.1543 0.239801 56.792C0.707322 61.4516 1.85511 66.0264 3.65378 70.3688C6.06601 76.1924 9.60166 81.4839 14.0589 85.9411C18.5161 90.3983 23.8076 93.934 29.6312 96.3462C35.4548 98.7584 41.6966 100 48 100C54.3035 100 60.5452 98.7584 66.3688 96.3462C72.1924 93.934 77.4839 90.3983 81.9411 85.9411C86.3983 81.4839 89.934 76.1924 92.3462 70.3688C94.1449 66.0264 95.2927 61.4516 95.7602 56.792C96.0249 54.1543 93.851 52 91.2 52V52C88.549 52 86.4309 54.1573 86.1004 56.7875C85.6734 60.1853 84.793 63.518 83.477 66.695C81.5472 71.3539 78.7187 75.5871 75.1529 79.1529C71.5871 82.7187 67.3539 85.5472 62.695 87.477C58.0361 89.4068 53.0428 90.4 48 90.4C42.9572 90.4 37.9639 89.4068 33.305 87.477C28.6461 85.5472 24.4129 82.7187 20.8471 79.1529C17.2813 75.5871 14.4528 71.3539 12.523 66.695C11.207 63.518 10.3266 60.1853 9.89961 56.7875C9.5691 54.1573 7.45097 52 4.8 52V52Z" fill="#0075FF"/>
<rect width="9.6" height="48" rx="4.8" transform="matrix(-1 0 0 1 9.59998 52)" fill="#0075FF"/>
<path d="M24.0718 67.2798C19.6712 62.0998 13.5103 47.7438 24.0718 31.7598L47.1749 49.5198L70.6447 31.7598C75.2898 37.5564 81.7929 52.7758 70.6447 67.2798" stroke="#7BEE8D" stroke-width="9" stroke-linecap="round" stroke-linejoin="round"/>
</svg>
